<svg width="667" height="236" viewBox="0 0 667 236" fill="none" xmlns="http://www.w3.org/2000/svg">
<path d="M182.66 131.99H204.96C205.68 133.84 206.81 135.53 208.34 137.07C211.62 140.35 216.13 141.99 221.88 141.99C230.59 141.99 234.95 139.43 234.95 134.3C234.95 133.48 234.74 132.74 234.33 132.07C233.92 131.4 233.2 130.79 232.18 130.22C231.15 129.66 230.18 129.17 229.26 128.76C228.34 128.35 226.98 127.91 225.18 127.45C223.39 126.99 221.95 126.66 220.87 126.45C219.79 126.25 218.1 125.89 215.79 125.37C213.48 124.86 211.81 124.5 210.79 124.29C194.59 120.8 186.49 112.86 186.49 100.45C186.49 93.89 189.44 88.27 195.33 83.61C201.23 78.94 209.3 76.61 219.56 76.61C233.3 76.61 243.61 80.87 250.48 89.38C253.45 93.07 255.45 97.28 256.48 101.99H234.94C234.22 100.45 233.3 99.17 232.17 98.14C228.99 95.58 224.79 94.29 219.56 94.29C215.87 94.29 213.15 94.88 211.41 96.06C209.66 97.24 208.79 98.7 208.79 100.44C208.79 101.06 208.92 101.65 209.17 102.21C209.42 102.77 209.86 103.29 210.48 103.75C211.1 104.21 211.71 104.62 212.33 104.98C212.95 105.34 213.82 105.7 214.95 106.06C216.08 106.42 217.08 106.75 217.95 107.06C218.82 107.37 219.97 107.68 221.41 107.98C222.85 108.29 224.08 108.54 225.1 108.75C226.12 108.96 227.46 109.24 229.1 109.6C230.74 109.96 232.07 110.24 233.1 110.45C249.2 114.04 257.25 121.99 257.25 134.29C257.25 141.16 254.07 147.11 247.71 152.13C241.35 157.16 232.74 159.67 221.87 159.67C207.31 159.67 196.54 155.06 189.57 145.83C186.4 141.63 184.09 137.02 182.66 131.99Z" fill="white"/>
<path d="M263.41 97.38V78.93H273.41V62.01H294.95V78.93H317.1V97.39H294.95V138.92H318.02V157.38H273.41V97.38H263.41Z" fill="white"/>
<path d="M336.86 148.22C329.94 140.58 326.48 130.56 326.48 118.15C326.48 105.74 329.94 95.72 336.86 88.08C343.78 80.44 352.37 76.62 362.63 76.62C369.5 76.62 375.7 78.67 381.24 82.77C383.6 84.72 385.6 86.77 387.24 88.92H388.01V78.92H409.55V157.37H388.01V147.37H387.24C385.6 149.52 383.6 151.58 381.24 153.52C375.7 157.62 369.5 159.67 362.63 159.67C352.37 159.68 343.79 155.86 336.86 148.22ZM354.17 101.23C350.58 105.33 348.79 110.97 348.79 118.15C348.79 125.33 350.58 130.97 354.17 135.07C357.76 139.17 362.37 141.22 368.01 141.22C373.96 141.22 378.78 139.2 382.47 135.14C386.16 131.09 388.01 125.43 388.01 118.14C388.01 110.86 386.16 105.19 382.47 101.14C378.78 97.09 373.96 95.06 368.01 95.06C362.37 95.08 357.76 97.13 354.17 101.23Z" fill="white"/>
<path d="M433 148.22C426.08 140.58 422.62 130.56 422.62 118.15C422.62 105.74 426.08 95.72 433 88.08C439.92 80.44 448.51 76.62 458.77 76.62C465.64 76.62 471.84 78.6699 477.38 82.7699C479.74 84.7199 481.74 86.7699 483.38 88.9199H484.15V49.7H505.69V157.37H484.15V147.37H483.38C481.74 149.52 479.74 151.58 477.38 153.52C471.84 157.62 465.64 159.67 458.77 159.67C448.51 159.68 439.92 155.86 433 148.22ZM450.31 101.23C446.72 105.33 444.93 110.97 444.93 118.15C444.93 125.33 446.72 130.97 450.31 135.07C453.9 139.17 458.51 141.22 464.15 141.22C470.1 141.22 474.92 139.2 478.61 135.14C482.3 131.09 484.15 125.43 484.15 118.14C484.15 110.86 482.3 105.19 478.61 101.14C474.92 97.0899 470.1 95.0599 464.15 95.0599C458.51 95.0799 453.89 97.13 450.31 101.23Z" fill="white"/>
<path d="M530.21 147.61C522.06 139.56 517.98 129.74 517.98 118.15C517.98 106.56 522.06 96.74 530.21 88.69C538.36 80.64 548.38 76.62 560.28 76.62C572.38 76.62 582.33 80.62 590.12 88.62C597.91 96.62 601.81 106.46 601.81 118.15V122.76H540.28C541.1 127.89 543.41 132.25 547.2 135.84C550.99 139.43 555.35 141.22 560.28 141.22C565.71 141.22 570.38 139.68 574.28 136.61C575.82 135.28 577.05 133.74 577.97 132H601.04C599.29 137.23 596.73 141.84 593.35 145.84C585.14 155.07 574.12 159.68 560.28 159.68C548.39 159.68 538.37 155.66 530.21 147.61ZM541.06 109.69H578.75C577.93 105.59 575.85 102.13 572.52 99.31C569.19 96.49 565.11 95.08 560.29 95.08C555.47 95.08 551.37 96.46 547.98 99.23C544.6 102 542.29 105.49 541.06 109.69Z" fill="white"/>
<path d="M614.89 157.37V78.9299H636.43V90.4699H637.2C638.12 88.0099 639.51 85.8599 641.35 84.0099C645.55 79.5999 650.83 77.3999 657.19 77.3999H666.42V98.1699H654.88C649.04 98.1699 644.5 99.7299 641.27 102.86C638.04 105.99 636.42 110.32 636.42 115.86V157.39H614.89V157.37Z" fill="white"/>
<path d="M73.2199 218.53L73.1699 201.52L115.62 176.31L115.47 125.71L130.76 117.6L131.36 185.17L73.2199 218.53Z" fill="#494949"/>
<path d="M85.6099 93.4901L102.99 83.5601L145.62 110.51L145.85 191.95L131.36 185.17L130.76 117.6L85.6099 93.4901Z" fill="white"/>
<path d="M72.5601 0L145.42 41.86L145.47 59.29L72.6401 18.26L72.5601 0Z" fill="white"/>
<path d="M0.25 127.75L0 42.71L72.56 0L72.64 18.26L13.62 51.58L13.4 117.94L0.25 127.75Z" fill="#494949"/>
<path d="M43 151.48L0.25 127.75L13.4 117.94L86.65 160.18L43.1 184.96L28.52 193.15L73.22 218.53L131.36 185.17L145.85 191.95L72.86 235.53L0.44 194.06L58.16 159.9L43 151.48Z" fill="#B3B3B3"/>
<path d="M13.6201 51.58L72.6401 18.26L145.47 59.29L102.99 83.56L85.6101 93.49L130.76 117.6L115.47 125.71L57.5201 92.69L115.28 58.52L101.5 50.59L72.6801 33.99L29.7901 58.77L13.6201 51.58Z" fill="#B3B3B3"/>
<path d="M28.52 193.15L43.1 184.96L73.17 201.52L73.22 218.53L28.52 193.15Z" fill="white"/>
<path d="M0.440137 194.06L0.390137 175.79L43.0001 151.48L58.1601 159.9L0.440137 194.06Z" fill="#494949"/>
<path d="M57.52 92.69L57.69 75.28L101.5 50.59L115.28 58.52L57.52 92.69Z" fill="#494949"/>
<path d="M13.3999 117.94L13.6199 51.58L29.7899 58.77L29.9399 110.84L86.5899 142.38L86.6499 160.18L13.3999 117.94Z" fill="white"/>
</svg>