<svg width="11" height="15" viewBox="0 0 11 15" fill="none" xmlns="http://www.w3.org/2000/svg">
<path d="M0.717069 4.10396C1.10716 2.42659 2.89335 0.40859 5.63606 0.522565C6.88333 0.574176 7.95857 1.05631 8.85101 1.93112C9.46249 2.52747 9.90401 3.276 10.1301 4.09966C10.1116 4.0969 10.0933 4.09259 10.0755 4.08676C9.35681 3.66484 8.48715 3.89192 8.05405 4.48502C7.97964 4.58696 7.95642 4.50309 7.91943 4.45922C7.25837 3.67258 6.15174 3.6687 5.49757 4.45922C5.41929 4.55341 5.39435 4.53191 5.3294 4.45363C4.68426 3.67473 3.56601 3.67516 2.92087 4.45363C2.8512 4.53965 2.82496 4.54438 2.75227 4.45363C2.41422 4.03773 1.97122 3.84461 1.43619 3.87257C1.17899 3.88762 0.946309 3.97794 0.717069 4.10396ZM9.29272 4.38696C9.52009 4.38981 9.74028 4.46704 9.91962 4.60684C10.099 4.74664 10.2276 4.94133 10.2858 5.16113C10.302 5.21401 10.3059 5.26993 10.297 5.32452C10.2881 5.37912 10.2668 5.43094 10.2346 5.47596C9.03495 7.30816 7.83958 9.14323 6.6485 10.9812C6.53066 11.1635 6.43904 11.041 6.33324 11.0104C6.18873 10.9674 6.29023 10.8814 6.31002 10.8207C6.93709 9.08632 7.56632 7.35232 8.1977 5.61875C8.23081 5.52824 8.25122 5.43358 8.25834 5.33747C8.27897 5.07774 8.39705 4.83541 8.5889 4.65912C8.78075 4.48282 9.03217 4.3856 9.29272 4.38696ZM0.518794 5.30005C0.521805 5.28414 0.524816 5.26823 0.527396 5.25231C0.57058 5.0055 0.702065 4.78282 0.89733 4.6258C1.0926 4.46879 1.33831 4.38816 1.58864 4.39895C1.83897 4.40974 2.07683 4.51122 2.25785 4.68446C2.43888 4.8577 2.55071 5.09087 2.5725 5.34048C2.57985 5.43654 2.6007 5.53109 2.63443 5.62133C3.26724 7.3592 3.89805 9.09764 4.52684 10.8367C4.54448 10.8857 4.63437 10.9734 4.50706 11.0005C4.40857 11.022 4.31696 11.1842 4.19868 11.0027C2.99184 9.14323 1.78198 7.28609 0.569116 5.43123C0.5446 5.39123 0.510622 5.35382 0.518794 5.30005ZM5.67348 8.0647C5.67348 7.17785 5.66918 6.29142 5.67348 5.405C5.67136 5.14642 5.76669 4.89653 5.94049 4.70507C6.1143 4.51361 6.35383 4.39463 6.6114 4.3718C6.86897 4.34897 7.1257 4.42397 7.33047 4.58188C7.53524 4.73978 7.67303 4.96901 7.71643 5.22393C7.73613 5.31816 7.72776 5.41611 7.69234 5.50564C7.06153 7.23892 6.43073 8.97263 5.79992 10.7068C5.78143 10.758 5.78186 10.8534 5.71391 10.844C5.63821 10.8332 5.67778 10.7446 5.67735 10.6921C5.67333 9.81762 5.67204 8.94181 5.67348 8.0647ZM5.15736 8.05137C5.15736 8.94338 5.15736 9.8354 5.15736 10.7274C5.15736 10.7704 5.18962 10.8379 5.11865 10.8461C5.06704 10.8521 5.06747 10.7868 5.0507 10.7493C5.04167 10.73 5.03565 10.7094 5.02833 10.6891C4.40814 8.98553 3.79095 7.28107 3.16431 5.58005C3.12784 5.48543 3.11146 5.38426 3.1162 5.28297C3.12094 5.18168 3.14669 5.08248 3.19183 4.99168C3.28624 4.78171 3.44869 4.60972 3.65294 4.5035C3.85718 4.39728 4.09128 4.36304 4.31739 4.40632C4.81028 4.50696 5.15435 4.90867 5.15736 5.40758C5.1608 6.28884 5.15693 7.1701 5.15736 8.05137Z" fill="#F9F9F9"/>
<rect x="4" y="11.5" width="3" height="3" rx="0.8" fill="#F9F9F9"/>
</svg>
