<svg width="14" height="7" viewBox="0 0 14 7" fill="none" xmlns="http://www.w3.org/2000/svg">
<path d="M7.03016 6.99935C7.26917 6.99428 7.49761 6.90901 7.67125 6.76003L13.7052 1.50843C13.8893 1.34684 13.9953 1.12566 13.9998 0.893356C14.0044 0.661056 13.9072 0.436594 13.7295 0.26917C13.5518 0.101745 13.3082 0.00501765 13.0519 0.000189211C12.7957 -0.00463875 12.5479 0.0828261 12.3627 0.243412L6.99999 4.91375L1.63733 0.243412C1.45212 0.0828266 1.20425 -0.00463825 0.948036 0.00018974C0.691821 0.0050182 0.448169 0.101746 0.270487 0.26917C0.0928041 0.436594 -0.00440548 0.661057 0.000153121 0.893356C0.00471172 1.12566 0.110669 1.34684 0.294808 1.50843L6.32873 6.76003C6.42216 6.84029 6.53233 6.90281 6.65279 6.94391C6.77325 6.985 6.90155 7.00385 7.03016 6.99935Z" fill="#F9F9F9"/>
</svg>
