<svg width="8" height="16" viewBox="0 0 8 16" fill="none" xmlns="http://www.w3.org/2000/svg">
<path d="M7.7493 7.96768C7.74387 7.7116 7.65251 7.46685 7.49289 7.2808L1.86617 0.815865C1.69304 0.618574 1.45606 0.505047 1.20717 0.500164C0.958274 0.495279 0.717779 0.599448 0.538396 0.789822C0.359012 0.980197 0.255375 1.24125 0.250202 1.51577C0.245029 1.79028 0.338742 2.05585 0.510798 2.25428L5.51473 8.00001L0.510799 13.7457C0.338743 13.9442 0.24503 14.2097 0.250203 14.4842C0.255376 14.7588 0.359014 15.0198 0.538397 15.2102C0.71778 15.4006 0.958275 15.5047 1.20717 15.4998C1.45606 15.495 1.69304 15.3814 1.86617 15.1841L7.49289 8.71921C7.57888 8.61912 7.64586 8.50107 7.6899 8.37201C7.73393 8.24295 7.75413 8.10548 7.7493 7.96768Z" fill="#EB5FE2"/>
</svg>
