<svg width="10" height="14" viewBox="0 0 10 14" fill="none" xmlns="http://www.w3.org/2000/svg">
<path d="M5.74424 0.875L4.75986 6.05938L8.32549 6.08125L3.46924 13.1031L4.45361 7.39375L0.887988 7.37188L5.74424 0.875ZM5.74424 0C5.72236 0 5.70049 0 5.67861 0C5.52549 0.021875 5.41611 0.065625 5.30674 0.153125C5.24111 0.196875 5.17549 0.2625 5.13174 0.30625C5.10986 0.328125 5.10986 0.35 5.08799 0.371875L0.166113 6.86875C-0.0307616 7.13125 -0.0526368 7.48125 0.100488 7.7875C0.253613 8.07188 0.559863 8.26875 0.887988 8.26875L3.40361 8.29062L2.61611 12.9719C2.55049 13.3656 2.74736 13.7813 3.14111 13.9344C3.25049 13.9781 3.38174 14 3.49111 14C3.77549 14 3.99424 13.8688 4.16924 13.6281L9.06924 6.60625C9.26612 6.34375 9.28799 5.99375 9.13486 5.6875C8.98174 5.40313 8.67549 5.20625 8.34736 5.20625H5.83174L6.61924 1.09375C6.64111 1.02813 6.64111 0.9625 6.64111 0.896875C6.64111 0.415625 6.26924 0.0437501 5.78799 0.0218751C5.76611 8.31205e-08 5.74424 0 5.74424 0Z" fill="#43B8D2"/>
</svg>
