<svg width="20" height="20" viewBox="0 0 20 20" fill="none" xmlns="http://www.w3.org/2000/svg">
<path fill-rule="evenodd" clip-rule="evenodd" d="M10.5449 9.77459L12.5612 11.7909C12.7736 12.003 12.7736 12.3479 12.5612 12.56C12.3491 12.7724 12.0042 12.7724 11.7921 12.56L9.6164 10.3843C9.51441 10.2823 9.45703 10.1439 9.45703 9.99977V5.64841C9.45703 5.34817 9.70071 5.10449 10.001 5.10449C10.3012 5.10449 10.5449 5.34817 10.5449 5.64841V9.77459Z" fill="#43B8D2"/>
<path fill-rule="evenodd" clip-rule="evenodd" d="M14.2306 14.2306C11.8957 16.5655 8.10426 16.5655 5.76937 14.2306C3.43448 11.8957 3.43449 8.10426 5.76938 5.76938C8.10426 3.43449 11.8957 3.43449 14.2306 5.76937C16.0712 7.60996 16.4612 10.3556 15.3999 12.5795C15.2705 12.8506 15.3856 13.1753 15.6563 13.3048C15.9272 13.434 16.2524 13.3189 16.3816 13.048C17.6356 10.42 17.1752 7.1752 15 5C12.2405 2.24051 7.75949 2.24051 5 5C2.2405 7.7595 2.24051 12.2405 5 15C7.7595 17.7595 12.2405 17.7595 15 15C15.2123 14.7877 15.2123 14.4429 15 14.2306C14.7877 14.0183 14.4429 14.0183 14.2306 14.2306Z" fill="#43B8D2"/>
</svg>
