<svg width="32" height="32" viewBox="0 0 32 32" fill="none" xmlns="http://www.w3.org/2000/svg">
<path d="M15.688 31.9999C15.4895 31.9377 15.2948 31.8642 15.1046 31.7799C14.7005 31.5728 14.3807 31.2319 14.1996 30.8154C14.0186 30.3989 13.9875 29.9326 14.1117 29.4957C14.2359 29.0589 14.5077 28.6787 14.8808 28.4197C15.2539 28.1608 15.7052 28.0392 16.1579 28.0757C16.6106 28.1121 17.0366 28.3044 17.3634 28.6197C17.6903 28.935 17.8977 29.3539 17.9504 29.805C18.0031 30.256 17.8978 30.7114 17.6524 31.0936C17.407 31.4757 17.0367 31.761 16.6047 31.9008L16.3113 31.9999H15.688ZM15.9888 28.9999C15.7847 29.0022 15.5859 29.065 15.4175 29.1804C15.2491 29.2957 15.1187 29.4584 15.0428 29.6479C14.9669 29.8374 14.949 30.0451 14.9912 30.2448C15.0334 30.4445 15.1339 30.6272 15.2799 30.7698C15.426 30.9124 15.6111 31.0084 15.8118 31.0458C16.0124 31.0831 16.2197 31.0601 16.4073 30.9796C16.5948 30.8992 16.7543 30.7649 16.8656 30.5937C16.9768 30.4226 17.0348 30.2223 17.0322 30.0182C17.0308 29.8827 17.0026 29.7488 16.9494 29.6242C16.8962 29.4995 16.8189 29.3866 16.722 29.2918C16.6251 29.1971 16.5105 29.1224 16.3847 29.072C16.2588 29.0216 16.1243 28.9965 15.9888 28.9982V28.9999Z" fill="#EB5FE2"/>
<path d="M0 15.687C0.173338 15.0495 0.494181 14.5261 1.11503 14.2286C1.47343 14.0552 1.87601 13.9946 2.26957 14.0549C2.66313 14.1151 3.02916 14.2933 3.3193 14.566C3.60944 14.8386 3.81004 15.1929 3.8946 15.5819C3.97916 15.971 3.94369 16.3765 3.7929 16.745C3.6421 17.1135 3.38306 17.4275 3.05 17.6457C2.71694 17.8639 2.32554 17.9758 1.9275 17.9668C1.52946 17.9578 1.14351 17.8283 0.82064 17.5953C0.497772 17.3624 0.253178 17.0369 0.11917 16.662C0.0775023 16.5462 0.0358344 16.4287 0 16.312V15.687ZM3.00009 16.0095C3.00189 15.8055 2.94317 15.6055 2.83135 15.4349C2.71953 15.2643 2.55963 15.1306 2.37186 15.0508C2.1841 14.9711 1.97689 14.9488 1.77645 14.9867C1.576 15.0247 1.39131 15.1212 1.24572 15.2641C1.10013 15.407 1.00017 15.5899 0.958494 15.7896C0.916815 15.9893 0.93528 16.1969 1.01156 16.3861C1.08783 16.5753 1.21849 16.7377 1.38702 16.8527C1.55556 16.9676 1.75439 17.0301 1.95839 17.032C2.09415 17.0336 2.22889 17.0083 2.35487 16.9577C2.48084 16.907 2.59559 16.832 2.69252 16.737C2.78945 16.6419 2.86666 16.5286 2.91972 16.4036C2.97279 16.2787 3.00067 16.1444 3.00175 16.0087L3.00009 16.0095Z" fill="#EB5FE2"/>
<path d="M15.8396 27.4949C15.1638 27.4641 14.3296 27.5507 13.4987 27.4524C12.9466 27.3839 12.4276 27.1517 12.0087 26.7857C11.0881 26.004 10.1714 25.2182 9.25859 24.4281C8.97941 24.1881 8.94358 23.9198 9.14691 23.6973C9.33192 23.4948 9.60776 23.4981 9.8686 23.7198C10.7403 24.4623 11.6145 25.2023 12.4762 25.9573C12.9117 26.353 13.4821 26.5671 14.0704 26.5557C15.3615 26.5479 16.6527 26.5479 17.9438 26.5557C18.522 26.5673 19.0829 26.3587 19.513 25.9723C20.3597 25.2332 21.2181 24.5065 22.0715 23.7748L22.0956 23.7539C22.3898 23.5039 22.6723 23.4864 22.864 23.7056C23.0556 23.9248 23.0156 24.1998 22.7156 24.4556C22.1395 24.9518 21.5626 25.4465 20.9848 25.9398C20.6922 26.1898 20.3956 26.4399 20.1081 26.6899C19.5124 27.2247 18.734 27.5102 17.9338 27.4874C17.2863 27.4907 16.6413 27.4949 15.8396 27.4949Z" fill="#EB5FE2"/>
<path d="M16.173 4.50848C16.8397 4.53931 17.6663 4.45514 18.4872 4.54848C19.0497 4.61424 19.5789 4.84935 20.0047 5.22267C20.9164 6.00047 21.8259 6.77827 22.7332 7.55607C23.0165 7.79941 23.059 8.06108 22.8657 8.28692C22.6723 8.51276 22.394 8.49859 22.1215 8.26525C21.2431 7.51523 20.3631 6.76521 19.4906 6.00769C19.0663 5.63036 18.5148 5.42787 17.9472 5.441C16.6455 5.44656 15.3438 5.44656 14.0421 5.441C13.4745 5.43044 12.9241 5.63565 12.502 6.01519C11.6545 6.75437 10.7962 7.48106 9.94196 8.21192C9.89446 8.25275 9.84862 8.29525 9.79779 8.33192C9.56445 8.49859 9.29027 8.47776 9.1311 8.27859C8.97193 8.07941 8.98193 7.81357 9.21027 7.6119C9.89279 7.01605 10.627 6.46937 11.2612 5.82935C12.2712 4.81432 13.4429 4.35014 14.8696 4.49598C15.2471 4.53765 15.6363 4.50848 16.173 4.50848Z" fill="#EB5FE2"/>
<path d="M27.4949 16.1753C27.464 16.842 27.549 17.6645 27.4549 18.4845C27.389 19.0471 27.1543 19.5765 26.7815 20.0029C26.0037 20.9157 25.2245 21.8249 24.4439 22.7305C24.1989 23.0155 23.9398 23.058 23.7139 22.8655C23.4881 22.673 23.5014 22.3963 23.7356 22.1221C24.4856 21.2429 25.2356 20.3629 25.9923 19.4904C26.3694 19.066 26.5722 18.5146 26.5598 17.947C26.5543 16.6453 26.5543 15.3436 26.5598 14.0419C26.5699 13.4743 26.3651 12.9239 25.9865 12.501C25.2548 11.661 24.5356 10.8101 23.8106 9.96428C23.7831 9.93262 23.7548 9.90261 23.7273 9.87011C23.5014 9.59427 23.4989 9.30843 23.7206 9.12676C23.9423 8.94509 24.1973 8.98592 24.4289 9.25093C24.779 9.65094 25.1223 10.0551 25.4681 10.4585C25.8948 10.9585 26.3212 11.4585 26.7473 11.9585C27.2393 12.5211 27.5063 13.2454 27.4974 13.9927C27.4965 14.6661 27.4949 15.3419 27.4949 16.1753Z" fill="#EB5FE2"/>
<path d="M4.50596 15.842C4.53846 15.1611 4.44679 14.3161 4.55012 13.4761C4.61788 12.9349 4.84501 12.4261 5.20264 12.0144C5.98433 11.0927 6.76991 10.176 7.55938 9.26431C7.80272 8.98181 8.06522 8.94097 8.2894 9.13681C8.51357 9.33265 8.49857 9.60599 8.26356 9.881C7.51354 10.7602 6.76352 11.641 6.006 12.5127C5.63435 12.9277 5.43288 13.4675 5.44182 14.0245C5.4457 15.3373 5.4457 16.6495 5.44182 17.9612C5.42942 18.5183 5.62796 19.0594 5.99767 19.4763C6.72852 20.3171 7.44937 21.1672 8.17356 22.013C8.22106 22.0688 8.27106 22.1222 8.3144 22.1797C8.5019 22.4297 8.48107 22.7064 8.27606 22.8747C8.07106 23.043 7.81438 23.0155 7.60938 22.7914C7.37187 22.5297 7.14603 22.2564 6.91603 21.988C6.36045 21.3397 5.80488 20.691 5.24931 20.0421C4.75971 19.4789 4.49504 18.7549 4.50596 18.0087C4.50512 17.342 4.50596 16.6754 4.50596 15.842Z" fill="#EB5FE2"/>
<path d="M16.0112 3.93842C15.6214 3.9404 15.2397 3.82663 14.9146 3.61153C14.5895 3.39643 14.3356 3.08968 14.1849 2.73013C14.0343 2.37058 13.9938 1.9744 14.0685 1.5918C14.1432 1.2092 14.3298 0.857381 14.6046 0.580913C14.8795 0.304445 15.2302 0.115768 15.6123 0.0387827C15.9945 -0.0382024 16.3909 -3.19589e-05 16.7513 0.14846C17.1118 0.296951 17.42 0.549083 17.637 0.872913C17.8541 1.19674 17.9701 1.5777 17.9704 1.96753C17.9709 2.48836 17.765 2.98816 17.3978 3.35754C17.0306 3.72691 16.532 3.93578 16.0112 3.93842ZM16.0004 3.0009C16.2045 3.00073 16.4039 2.94004 16.5735 2.8265C16.7431 2.71296 16.8752 2.55168 16.9531 2.36305C17.031 2.17442 17.0512 1.96692 17.0112 1.7668C16.9711 1.56668 16.8727 1.38293 16.7282 1.2388C16.5837 1.09466 16.3997 0.996615 16.1995 0.957063C15.9993 0.91751 15.7918 0.938229 15.6034 1.0166C15.4149 1.09496 15.254 1.22746 15.1408 1.39732C15.0277 1.56718 14.9675 1.76678 14.9678 1.97087C14.9687 2.24421 15.0779 2.50607 15.2714 2.69912C15.4649 2.89216 15.727 3.00068 16.0004 3.0009Z" fill="#EB5FE2"/>
<path d="M32 16.0085C31.998 16.3984 31.8803 16.7791 31.6618 17.1021C31.4433 17.4251 31.1339 17.6761 30.7727 17.8231C30.4115 17.9701 30.0147 18.0066 29.6327 17.928C29.2508 17.8493 28.9007 17.6591 28.627 17.3813C28.3532 17.1036 28.168 16.7508 28.0949 16.3678C28.0218 15.9847 28.064 15.5885 28.2162 15.2295C28.3684 14.8704 28.6237 14.5646 28.9499 14.3508C29.2761 14.137 29.6583 14.0248 30.0483 14.0284C30.5687 14.0352 31.0655 14.2469 31.4309 14.6176C31.7962 14.9882 32.0007 15.488 32 16.0085ZM28.9999 15.9993C29.0004 16.2034 29.0615 16.4028 29.1753 16.5722C29.2892 16.7416 29.4507 16.8735 29.6395 16.9511C29.8283 17.0286 30.0359 17.0485 30.236 17.008C30.4361 16.9676 30.6196 16.8687 30.7635 16.7239C30.9074 16.5791 31.0051 16.3949 31.0442 16.1946C31.0833 15.9943 31.0622 15.7868 30.9834 15.5985C30.9046 15.4102 30.7717 15.2495 30.6015 15.1368C30.4314 15.024 30.2316 14.9643 30.0275 14.9651C29.8919 14.9655 29.7578 14.9927 29.6327 15.045C29.5077 15.0973 29.3941 15.1737 29.2986 15.2699C29.2031 15.3661 29.1275 15.4802 29.0761 15.6056C29.0247 15.7311 28.9986 15.8654 28.9991 16.001L28.9999 15.9993Z" fill="#EB5FE2"/>
<path d="M10 14.0267C10.0468 13.7824 10.0786 13.535 10.1562 13.2964C10.3932 12.5717 10.8699 11.9505 11.507 11.536C12.1441 11.1215 12.9032 10.9388 13.6579 11.0181C14.4624 11.1055 15.144 11.4424 15.7133 12.0172C15.7976 12.1023 15.8732 12.2491 15.9736 12.2514C16.074 12.2536 16.1504 12.1045 16.2358 12.0198C16.9349 11.3171 17.7788 10.9777 18.7675 11.0016C20.3053 11.0366 21.6771 12.2438 21.9052 13.7707C22.0753 14.9106 21.7341 15.8957 20.9689 16.7341C20.2165 17.5596 19.3664 18.2828 18.5267 19.0154C17.8278 19.6248 17.1166 20.22 16.4013 20.8095C16.0964 21.061 15.8586 21.0644 15.5571 20.8144C14.1774 19.6704 12.8014 18.5218 11.5093 17.2758C11.0936 16.8753 10.6876 16.4653 10.4168 15.9432C10.2039 15.5428 10.0696 15.1049 10.0213 14.6535C10.0169 14.6311 10.0101 14.6093 10.0011 14.5883L10 14.0267ZM11.0588 14.2337C11.0544 14.6518 11.1519 15.0646 11.3427 15.4361C11.5498 15.84 11.867 16.1514 12.1853 16.4615C13.3703 17.6097 14.6351 18.6668 15.8968 19.7272C15.9665 19.7856 16.0047 19.7649 16.062 19.7178C16.905 19.0135 17.7439 18.3043 18.5641 17.5721C19.1285 17.0691 19.6982 16.57 20.2027 16.0049C20.8075 15.3273 21.0506 14.5409 20.7895 13.6517C20.3206 12.0567 18.2859 11.5271 17.078 12.676C16.8436 12.8989 16.6204 13.1334 16.3912 13.3619C16.1365 13.6156 15.8114 13.6152 15.5556 13.3619C15.3485 13.1556 15.1437 12.9478 14.9365 12.7404C14.5673 12.3643 14.0794 12.1291 13.5564 12.0752C12.2321 11.9239 11.0614 12.9655 11.0588 14.2337Z" fill="#EB5FE2"/>
</svg>
