<svg width="24" height="24" viewBox="0 0 24 24" fill="none" xmlns="http://www.w3.org/2000/svg">
    <path d="M6.20455 19.2509H5.75C4.64543 19.2509 3.75 18.3555 3.75 17.2509V5C3.75 3.89543 4.64543 3 5.75 3H16.6071C17.7117 3 18.6071 3.89543 18.6071 5V5.59092" stroke="url(#paint0_linear)" stroke-width="0.8"/>
    <path d="M18.9317 5.50031H8.09473C6.99016 5.50031 6.09473 6.39574 6.09473 7.50031V19C6.09473 20.1045 6.99016 21 8.09473 21H18.9317C20.0362 21 20.9317 20.1045 20.9317 19V7.50031C20.9317 6.39574 20.0362 5.50031 18.9317 5.50031Z" stroke="url(#paint1_linear)" stroke-width="0.8"/>
    <path d="M9.615 13.6593C8.79501 14.4793 8.795 15.815 9.61498 16.635C10.435 17.455 11.7707 17.455 12.5907 16.635L14.2439 14.9818C15.0639 14.1618 15.0639 12.8261 14.2439 12.0061C14.2115 11.9728 14.1728 11.9462 14.1301 11.928C14.0874 11.9098 14.0414 11.9002 13.995 11.8999C13.9485 11.8996 13.9024 11.9085 13.8594 11.9261C13.8165 11.9438 13.7774 11.9698 13.7445 12.0026C13.7117 12.0355 13.6857 12.0745 13.6681 12.1175C13.6504 12.1605 13.6415 12.2066 13.6418 12.253C13.6421 12.2995 13.6517 12.3454 13.6699 12.3882C13.6881 12.4309 13.7147 12.4696 13.748 12.502C14.3018 13.0558 14.3018 13.932 13.748 14.4858L12.0948 16.1391C11.5409 16.6929 10.6647 16.6929 10.1109 16.1391C9.55713 15.5853 9.55714 14.7091 10.111 14.1552L11.6815 12.5847C11.7148 12.5523 11.7414 12.5136 11.7597 12.4709C11.7779 12.4281 11.7875 12.3822 11.7878 12.3357C11.7882 12.2892 11.7793 12.2431 11.7616 12.2001C11.744 12.1571 11.718 12.118 11.6851 12.0851C11.6522 12.0523 11.6132 12.0262 11.5702 12.0086C11.5271 11.991 11.4811 11.9821 11.4346 11.9824C11.3881 11.9827 11.3421 11.9923 11.2994 12.0106C11.2566 12.0288 11.2179 12.0554 11.1855 12.0887L9.615 13.6593ZM12.7561 10.5182C11.9361 11.3382 11.9361 12.674 12.7561 13.4939C12.7885 13.5272 12.8272 13.5538 12.8699 13.572C12.9126 13.5902 12.9586 13.5997 13.005 13.6001C13.0515 13.6004 13.0975 13.5915 13.1405 13.5738C13.1835 13.5562 13.2226 13.5302 13.2554 13.4973C13.2883 13.4645 13.3143 13.4254 13.3319 13.3824C13.3495 13.3395 13.3585 13.2934 13.3581 13.2469C13.3578 13.2005 13.3483 13.1546 13.3301 13.1118C13.3118 13.0691 13.2853 13.0304 13.252 12.998C12.6982 12.4442 12.6982 11.568 13.252 11.0142L14.9052 9.36096C15.4591 8.80714 16.3353 8.80714 16.8891 9.36094C17.4429 9.91475 17.4429 10.791 16.889 11.3448L15.3185 12.9153C15.2852 12.9477 15.2587 12.9864 15.2404 13.0291C15.2222 13.0719 15.2127 13.1178 15.2124 13.1643C15.212 13.2107 15.221 13.2568 15.2386 13.2998C15.2562 13.3428 15.2822 13.3818 15.3151 13.4147C15.3479 13.4475 15.387 13.4735 15.43 13.4912C15.473 13.5088 15.519 13.5177 15.5655 13.5174C15.6119 13.5171 15.6579 13.5075 15.7006 13.4893C15.7434 13.4711 15.7821 13.4446 15.8145 13.4113L17.385 11.8407C18.205 11.0207 18.205 9.68497 17.385 8.86498C16.565 8.045 15.2293 8.04501 14.4093 8.86501L12.7561 10.5182Z" fill="#F9F9F9"/>
    <defs>
        <linearGradient id="paint0_linear" x1="11.1786" y1="3" x2="11.1786" y2="19.2509" gradientUnits="userSpaceOnUse">
            <stop stop-color="#F04ADC"/>
            <stop offset="1" stop-color="#E44AD1" stop-opacity="0.9"/>
        </linearGradient>
        <linearGradient id="paint1_linear" x1="13.5132" y1="5.50031" x2="13.5132" y2="21" gradientUnits="userSpaceOnUse">
            <stop stop-color="#F04ADC"/>
            <stop offset="1" stop-color="#E44AD1" stop-opacity="0.9"/>
        </linearGradient>
    </defs>
</svg>
