<svg width="40" height="48" viewBox="0 0 40 48" fill="none" xmlns="http://www.w3.org/2000/svg">
<path d="M4.1267 48C3.54931 47.8238 2.95193 47.7038 2.42578 47.3839C0.808592 46.4041 0 44.9681 0 43.076V21.4764C0 16.01 0 10.5435 0 5.0771C0.00124976 2.01645 2.01086 0.00933581 5.07651 0.00933581C12.2618 0.00933581 19.4462 0.00641975 26.6298 0.000587554C26.8772 -0.00586527 27.123 0.0408972 27.3507 0.13771C27.5784 0.234522 27.7826 0.379125 27.9496 0.561728C31.6413 4.27017 35.341 7.96945 39.0486 11.6596C39.2189 11.8175 39.3532 12.0102 39.4427 12.2245C39.5322 12.4387 39.5746 12.6697 39.5673 12.9018C39.5573 22.9299 39.5548 32.9571 39.5598 42.9835C39.5598 45.5942 38.1088 47.3801 35.5518 47.9325C35.509 47.9487 35.4689 47.9714 35.4331 48H4.1267ZM19.7874 46.0379C24.7556 46.0379 29.7234 46.0379 34.6907 46.0379C36.4029 46.0379 37.5939 44.8544 37.5952 43.1634C37.6002 33.447 37.6039 23.7301 37.6064 14.0129C37.6064 13.6454 37.4877 13.5804 37.154 13.5829C35.1382 13.5967 33.1236 13.5829 31.1089 13.5904C30.6554 13.5984 30.2023 13.5565 29.758 13.4655C27.4984 12.9656 26.0149 11.0834 25.9962 8.6789C25.9799 6.6018 25.9862 4.52346 25.9962 2.44636C25.9962 2.10393 25.9387 1.96396 25.545 1.96521C18.673 1.9777 11.7994 1.98145 4.92404 1.97645C3.12314 1.97645 1.95962 3.14248 1.95962 4.93588C1.95962 17.6526 1.95962 30.3684 1.95962 43.0835C1.95355 43.3328 1.97408 43.5821 2.02086 43.8271C2.3233 45.1855 3.41683 46.0391 4.8803 46.0404C9.85183 46.0429 14.8209 46.042 19.7874 46.0379ZM27.9508 3.5149C27.9508 5.21207 27.9508 6.92674 27.9508 8.63891C27.9583 10.4361 29.1493 11.6121 30.9602 11.6171C32.5357 11.6171 34.1117 11.6171 35.6881 11.6171C35.8205 11.6171 35.963 11.6621 36.043 11.6071L27.9508 3.5149Z" fill="url(#paint0_linear_6047_834)"/>
<path d="M21.6289 25.9842C24.4875 25.9842 27.3461 25.9842 30.2047 25.9842C30.8996 25.9842 31.3158 26.3179 31.3508 26.889C31.3735 27.141 31.2962 27.3918 31.1355 27.5873C30.9749 27.7828 30.7438 27.9072 30.4922 27.9338C30.3368 27.9482 30.1806 27.9519 30.0248 27.945H13.2005C13.0606 27.945 12.9193 27.9525 12.7794 27.9388C12.527 27.9204 12.2909 27.8071 12.1188 27.6215C11.9467 27.436 11.8514 27.1921 11.8521 26.939C11.8579 26.6858 11.9622 26.4448 12.1428 26.2672C12.3234 26.0897 12.5661 25.9895 12.8194 25.9879C13.7254 25.9679 14.6315 25.9804 15.5376 25.9804L21.6289 25.9842Z" fill="url(#paint1_linear_6047_834)"/>
<path d="M21.5863 23.4605C18.7127 23.4605 15.8383 23.4605 12.963 23.4605C12.1482 23.4605 11.6583 22.8357 11.9207 22.1483C11.9714 21.9996 12.0597 21.8667 12.1771 21.7624C12.2945 21.6581 12.437 21.5861 12.5906 21.5534C12.743 21.5207 12.8984 21.5047 13.0543 21.5059C18.754 21.5059 24.4545 21.5059 30.1559 21.5059C30.8196 21.5059 31.2357 21.7859 31.3332 22.2808C31.4644 22.9394 31.0208 23.458 30.2997 23.4618C28.6287 23.4693 26.9566 23.4618 25.2856 23.4618L21.5863 23.4605Z" fill="url(#paint2_linear_6047_834)"/>
<path d="M21.6296 30.4652H30.0168C30.1886 30.4593 30.3606 30.4648 30.5317 30.4814C30.7425 30.507 30.9382 30.6038 31.0864 30.7559C31.2346 30.908 31.3264 31.1061 31.3465 31.3175C31.3774 31.5354 31.3321 31.7573 31.2182 31.9457C31.1044 32.134 30.9289 32.2772 30.7216 32.3511C30.4807 32.4183 30.2301 32.444 29.9805 32.4273H13.245C12.9951 32.4438 12.7442 32.4185 12.5027 32.3523C12.303 32.2803 12.1318 32.1459 12.0145 31.969C11.8972 31.792 11.84 31.582 11.8515 31.37C11.8686 31.1502 11.9597 30.9426 12.11 30.7812C12.2603 30.6198 12.4608 30.5141 12.6789 30.4814C12.85 30.4647 13.022 30.4593 13.1938 30.4652H21.6296Z" fill="url(#paint3_linear_6047_834)"/>
<path d="M9.4111 30.4647C10.2084 30.4647 10.6346 30.8296 10.6309 31.4433C10.6271 32.0569 10.1834 32.4206 9.46234 32.4281C8.98118 32.4281 8.55627 32.3193 8.34381 31.8369C8.25741 31.6605 8.22878 31.4614 8.26199 31.2678C8.29519 31.0742 8.38853 30.8959 8.52877 30.7584C8.78497 30.4822 9.12116 30.4472 9.4111 30.4647Z" fill="#BD69E3"/>
<path d="M9.43747 27.9421C8.68761 27.9421 8.24395 27.5672 8.2602 26.9298C8.27769 26.2749 8.76885 25.9375 9.63493 25.9825C10.2598 26.015 10.6647 26.4474 10.6247 27.0373C10.5847 27.6272 10.1573 27.9434 9.43747 27.9421Z" fill="#BD69E3"/>
<path d="M9.42896 23.4599C8.66786 23.4599 8.24044 23.0849 8.26044 22.4476C8.28043 21.8102 8.77909 21.459 9.60018 21.5015C10.2575 21.5365 10.6725 21.9689 10.6275 22.5725C10.585 23.1512 10.1663 23.4611 9.42896 23.4599Z" fill="#BD69E3"/>
<defs>
<linearGradient id="paint0_linear_6047_834" x1="-2.99412e-08" y1="24" x2="39.5681" y2="24" gradientUnits="userSpaceOnUse">
<stop stop-color="#F04ADC"/>
<stop offset="1" stop-color="#00DBFF"/>
</linearGradient>
<linearGradient id="paint1_linear_6047_834" x1="11.8521" y1="26.9625" x2="31.3547" y2="26.9625" gradientUnits="userSpaceOnUse">
<stop stop-color="#CC60E1"/>
<stop offset="1" stop-color="#39B9F7"/>
</linearGradient>
<linearGradient id="paint2_linear_6047_834" x1="11.8496" y1="22.4855" x2="31.3561" y2="22.4855" gradientUnits="userSpaceOnUse">
<stop stop-color="#CC60E1"/>
<stop offset="1" stop-color="#39B9F7"/>
</linearGradient>
<linearGradient id="paint3_linear_6047_834" x1="11.8501" y1="31.4476" x2="31.356" y2="31.4476" gradientUnits="userSpaceOnUse">
<stop stop-color="#CC60E1"/>
<stop offset="1" stop-color="#39B9F7"/>
</linearGradient>
</defs>
</svg>
