<svg width="16" height="16" viewBox="0 0 16 16" fill="none" xmlns="http://www.w3.org/2000/svg">
<path fill-rule="evenodd" clip-rule="evenodd" d="M8 16C12.4183 16 16 12.4183 16 8C16 3.58172 12.4183 0 8 0C3.58172 0 0 3.58172 0 8C0 12.4183 3.58172 16 8 16ZM8 15C11.866 15 15 11.866 15 8C15 4.13401 11.866 1 8 1C4.13401 1 1 4.13401 1 8C1 11.866 4.13401 15 8 15Z" fill="#F9F9F9"/>
<path d="M7.05176 10.0693C7.04818 9.94043 7.04639 9.84375 7.04639 9.7793C7.04639 9.39974 7.1001 9.0721 7.20752 8.79639C7.2863 8.5887 7.41341 8.37923 7.58887 8.16797C7.71777 8.014 7.94873 7.7902 8.28174 7.49658C8.61833 7.19938 8.83675 6.96305 8.93701 6.7876C9.03727 6.61214 9.0874 6.42057 9.0874 6.21289C9.0874 5.83691 8.94059 5.50749 8.64697 5.22461C8.35335 4.93815 7.99349 4.79492 7.56738 4.79492C7.1556 4.79492 6.81185 4.92383 6.53613 5.18164C6.26042 5.43945 6.07959 5.84229 5.99365 6.39014L5 6.27197C5.08952 5.53792 5.35449 4.97575 5.79492 4.58545C6.23893 4.19515 6.82438 4 7.55127 4C8.32113 4 8.93522 4.20947 9.39355 4.62842C9.85189 5.04736 10.0811 5.55404 10.0811 6.14844C10.0811 6.49219 10.0005 6.80908 9.83936 7.09912C9.67822 7.38916 9.36312 7.74186 8.89404 8.15723C8.57894 8.43652 8.37305 8.64242 8.27637 8.7749C8.17969 8.90739 8.10807 9.05957 8.06152 9.23145C8.01497 9.40332 7.98812 9.68262 7.98096 10.0693H7.05176ZM6.99268 12.0083V10.9072H8.09375V12.0083H6.99268Z" fill="white"/>
</svg>
