<svg width="12" height="12" viewBox="0 0 12 12" fill="none" xmlns="http://www.w3.org/2000/svg">
<circle cx="6" cy="6" r="6" fill="#F9F9F9"/>
<path d="M5.6275 5.0597H6.565V9.20996H5.6275V5.0597ZM6.1 4.37576C5.93 4.37576 5.7875 4.32136 5.6725 4.21255C5.5575 4.09856 5.5 3.95867 5.5 3.79286C5.5 3.62706 5.5575 3.48975 5.6725 3.38095C5.7875 3.26696 5.93 3.20996 6.1 3.20996C6.27 3.20996 6.4125 3.26437 6.5275 3.37317C6.6425 3.4768 6.7 3.60892 6.7 3.76955C6.7 3.94053 6.6425 4.08561 6.5275 4.20478C6.4175 4.31877 6.275 4.37576 6.1 4.37576Z" fill="#111111"/>
</svg>
