<svg
  width="15"
  height="15"
  viewBox="0 0 12 12"
  fill="none"
  xmlns="http://www.w3.org/2000/svg">
  <path
    fill-rule="evenodd"
    clip-rule="evenodd"
    d="M6 11.25C8.8995 11.25 11.25 8.8995 11.25 6C11.25 3.10051 8.8995 0.75 6 0.75C3.10051 0.75 0.75 3.10051 0.75 6C0.75 8.8995 3.10051 11.25 6 11.25ZM6 12C9.31371 12 12 9.31371 12 6C12 2.68629 9.31371 0 6 0C2.68629 0 0 2.68629 0 6C0 9.31371 2.68629 12 6 12Z"
    fill="#E2B93B"
  />
  <path
    d="M5.62799 4.99594H6.56549V9.00094H5.62799V4.99594ZM6.10049 4.33594C5.93049 4.33594 5.78799 4.28344 5.67299 4.17844C5.55799 4.06844 5.50049 3.93344 5.50049 3.77344C5.50049 3.61344 5.55799 3.48094 5.67299 3.37594C5.78799 3.26594 5.93049 3.21094 6.10049 3.21094C6.27049 3.21094 6.41299 3.26344 6.52799 3.36844C6.64299 3.46844 6.70049 3.59594 6.70049 3.75094C6.70049 3.91594 6.64299 4.05594 6.52799 4.17094C6.41799 4.28094 6.27549 4.33594 6.10049 4.33594Z"
    fill="#E2B93B"
  />
</svg>