<svg width="12" height="12" viewBox="0 0 12 12" fill="none" xmlns="http://www.w3.org/2000/svg">
<path d="M11.1915 0.678089C11.1464 0.632878 11.0927 0.597024 11.0337 0.572581C10.9746 0.548138 10.9113 0.535586 10.8474 0.535645C10.7835 0.535704 10.7203 0.548372 10.6613 0.572924C10.6023 0.597476 10.5487 0.633428 10.5036 0.678722L0.628899 10.5804C0.537844 10.6718 0.486824 10.7956 0.487061 10.9246C0.487299 11.0536 0.538775 11.1772 0.630165 11.2683C0.721556 11.3593 0.845374 11.4104 0.974382 11.4101C1.10339 11.4099 1.22702 11.3584 1.31807 11.267L11.1928 1.36601C11.2379 1.32077 11.2736 1.26708 11.298 1.20802C11.3223 1.14896 11.3348 1.08567 11.3347 1.02179C11.3346 0.957904 11.3219 0.894668 11.2973 0.835695C11.2727 0.776722 11.2368 0.723166 11.1915 0.678089Z" fill="#EB5FE2"/>
<path d="M2.59455 5.18909C3.1077 5.18909 3.60933 5.03692 4.036 4.75183C4.46267 4.46674 4.79522 4.06153 4.99159 3.58744C5.18797 3.11334 5.23935 2.59167 5.13924 2.08838C5.03913 1.58508 4.79202 1.12278 4.42917 0.759926C4.06631 0.397072 3.60401 0.149966 3.10072 0.0498546C2.59742 -0.0502565 2.07575 0.00112418 1.60166 0.197499C1.12756 0.393874 0.722352 0.726423 0.43726 1.15309C0.152168 1.57977 0 2.08139 0 2.59455C0 3.28266 0.273353 3.9426 0.759925 4.42917C1.2465 4.91574 1.90643 5.18909 2.59455 5.18909ZM2.59455 0.86485C2.93665 0.86485 3.27107 0.966295 3.55551 1.15636C3.83996 1.34642 4.06166 1.61656 4.19258 1.93262C4.32349 2.24868 4.35775 2.59647 4.29101 2.93199C4.22427 3.26752 4.05953 3.57572 3.81763 3.81763C3.57572 4.05953 3.26752 4.22427 2.93199 4.29101C2.59646 4.35775 2.24868 4.32349 1.93262 4.19258C1.61656 4.06166 1.34642 3.83996 1.15636 3.55551C0.966294 3.27107 0.864849 2.93665 0.864849 2.59455C0.865364 2.13596 1.04776 1.6963 1.37203 1.37204C1.6963 1.04777 2.13596 0.865365 2.59455 0.86485Z" fill="#EB5FE2"/>
<path d="M9.28241 6.81079C8.76926 6.81079 8.26763 6.96296 7.84096 7.24805C7.41429 7.53314 7.08174 7.93836 6.88537 8.41245C6.68899 8.88654 6.63761 9.40822 6.73772 9.91151C6.83783 10.4148 7.08494 10.8771 7.44779 11.24C7.81065 11.6028 8.27295 11.8499 8.77624 11.95C9.27953 12.0501 9.80121 11.9988 10.2753 11.8024C10.7494 11.606 11.1546 11.2735 11.4397 10.8468C11.7248 10.4201 11.877 9.91849 11.877 9.40534C11.877 9.06462 11.8098 8.72723 11.6795 8.41245C11.5491 8.09766 11.358 7.81164 11.117 7.57072C10.8761 7.32979 10.5901 7.13868 10.2753 7.00829C9.96052 6.8779 9.62313 6.81079 9.28241 6.81079ZM9.28241 11.135C8.94031 11.135 8.60589 11.0336 8.32144 10.8435C8.037 10.6535 7.8153 10.3833 7.68438 10.0673C7.55346 9.7512 7.51921 9.40342 7.58595 9.06789C7.65269 8.73236 7.81743 8.42416 8.05933 8.18226C8.30123 7.94035 8.60944 7.77562 8.94497 7.70888C9.28049 7.64213 9.62828 7.67639 9.94434 7.8073C10.2604 7.93822 10.5305 8.15992 10.7206 8.44437C10.9107 8.72882 11.0121 9.06323 11.0121 9.40534C11.0116 9.86392 10.8292 10.3036 10.5049 10.6278C10.1807 10.9521 9.741 11.1345 9.28241 11.135Z" fill="#EB5FE2"/>
</svg>
