<svg width="24" height="40" viewBox="0 0 24 40" fill="none" xmlns="http://www.w3.org/2000/svg">
  <path d="M12.0483 37.1108L12.0405 34.2226L19.0253 29.941L19.0008 21.3491L21.5155 19.9707L21.616 31.4462L12.0483 37.1108Z" fill="#494949"/>
  <path d="M14.085 15.8756L16.9459 14.1895L23.9597 18.7649L23.9988 32.5973L21.6147 31.4448L21.5142 19.9693L14.085 15.8756Z" fill="#F9F9F9"/>
  <path d="M11.9409 0L23.9284 7.10865L23.9362 10.0694L11.9532 3.10024L11.9409 0Z" fill="#F9F9F9"/>
  <path d="M0.0413164 21.6936L0 7.25272L11.9406 0L11.9529 3.10024L2.24228 8.75904L2.20543 20.0282L0.0413164 21.6936Z" fill="#494949"/>
  <path d="M7.07543 25.7261L0.0415039 21.6947L2.20562 20.0293L14.2579 27.2025L7.0933 31.4114L4.69245 32.8025L12.048 37.1117L21.6156 31.4472L23.9997 32.5997L11.9899 39.9999L0.0727706 32.9581L9.57008 27.1564L7.07543 25.7261Z" fill="#B3B3B3"/>
  <path d="M2.24121 8.75646L11.9518 3.09766L23.9348 10.0669L16.9456 14.1882L14.0846 15.8743L21.5139 19.968L18.9991 21.3464L9.46385 15.7383L18.9667 9.93662L16.6999 8.58819L11.9585 5.77032L4.90001 9.97812L2.24121 8.75646Z" fill="#B3B3B3"/>
  <path d="M4.69238 32.7993L7.09323 31.4082L12.0401 34.2203L12.0479 37.1085L4.69238 32.7993Z" fill="#F9F9F9"/>
  <path d="M0.0724119 32.9566L0.0634766 29.8529L7.07507 25.7246L9.56972 27.1549L0.0724119 32.9566Z" fill="#494949"/>
  <path d="M9.46484 15.7439L9.49276 12.7866L16.7009 8.59375L18.9677 9.94218L9.46484 15.7439Z" fill="#494949"/>
  <path d="M2.20654 20.029L2.24339 8.75977L4.90219 9.98142L4.92676 18.8246L14.2499 24.1791L14.2588 27.2022L2.20654 20.029Z" fill="#F9F9F9"/>
</svg>
