<svg width="64" height="64" viewBox="0 0 64 64" fill="none" xmlns="http://www.w3.org/2000/svg">
<path d="M31.7722 4.35278C19.532 4.22862 8.25825 12.7231 5.18099 25.1581C1.44092 40.2598 10.5733 55.031 25.2586 58.645C33.3882 60.6449 40.9581 59.1588 47.8671 54.4025C48.3198 54.0912 48.7573 53.7646 49.336 53.7206C49.8264 53.6685 50.3203 53.7795 50.7412 54.0364C51.1621 54.2933 51.4866 54.6818 51.6645 55.1418C52.0351 56.1274 51.7352 57.1283 50.824 57.795C48.5136 59.4892 45.9837 60.8618 43.3038 61.875C38.6277 63.6419 33.7798 64.4098 28.8325 63.7852C15.9924 62.1597 7.03957 55.3003 2.06363 43.3466C0.813662 40.2968 0.123886 37.0465 0.0274076 33.7519C-0.404286 21.8822 4.26603 12.49 13.8722 5.58101C18.1073 2.51142 23.0937 0.644247 28.3034 0.177193C40.8645 -0.989909 50.8833 3.61546 58.2927 13.7851C61.4063 18.0658 63.1483 22.9366 63.7462 28.2067C64.6383 36.0556 62.8523 43.2568 58.52 49.843C57.947 50.7102 57.1581 51.1094 56.1381 50.9356C55.7335 50.877 55.3549 50.701 55.0494 50.4294C54.7438 50.1577 54.5246 49.8025 54.4189 49.4075C54.1668 48.6129 54.4037 47.9195 54.8506 47.249C56.8378 44.266 58.2333 40.929 58.9613 37.4194C61.7119 24.5106 54.4457 11.0593 42.0813 6.2572C38.8028 4.95328 35.3001 4.30622 31.7722 4.35278Z" fill="url(#paint0_linear_5794_1080)"/>
<path d="M18.0631 28.5464C18.8008 28.5746 19.4972 28.894 20 29.4346C22.9289 32.38 25.8673 35.3159 28.8153 38.2423C29.4399 38.8669 29.4437 38.8688 29.9977 38.1582C34.5821 32.2635 39.1664 26.3675 43.7508 20.4702C44.1099 20.008 44.5034 19.6107 45.1032 19.4846C46.1308 19.2707 47.042 19.6107 47.552 20.4015C48.0925 21.2419 48.0448 22.1817 47.361 23.0604C45.0981 25.9893 42.8275 28.9099 40.5494 31.8223C37.5746 35.6426 34.5999 39.4661 31.6251 43.2927C30.479 44.7693 29.1228 44.8571 27.8048 43.5468C24.1412 39.8831 20.48 36.2182 16.8215 32.5519C16.172 31.9044 15.8072 31.1862 16.044 30.2426C16.3076 29.2627 17.1863 28.5483 18.0631 28.5464Z" fill="url(#paint1_linear_5794_1080)"/>
<defs>
<linearGradient id="paint0_linear_5794_1080" x1="-4.84059e-08" y1="32" x2="63.9697" y2="32" gradientUnits="userSpaceOnUse">
<stop stop-color="#F04ADC"/>
<stop offset="1" stop-color="#00DBFF"/>
</linearGradient>
<linearGradient id="paint1_linear_5794_1080" x1="16.0453" y1="31.899" x2="47.9448" y2="31.899" gradientUnits="userSpaceOnUse">
<stop stop-color="#BA6BE4"/>
<stop offset="1" stop-color="#3CB7F6"/>
</linearGradient>
</defs>
</svg>
