<svg width="10" height="13" viewBox="0 0 10 13" fill="none" xmlns="http://www.w3.org/2000/svg">
<path d="M5.66895 0.581105L5.66895 12.3771C5.66895 12.612 5.81051 12.8239 6.02749 12.9139C6.24468 13.0039 6.49462 12.954 6.66068 12.7878L9.82982 9.61864C10.0567 9.39173 10.0567 9.02411 9.82982 8.79699C9.60291 8.56986 9.23529 8.57008 9.00817 8.79699L6.83076 10.9744L6.83076 0.581105C6.83076 0.260177 6.57068 9.61026e-05 6.24975 9.60886e-05C5.92882 9.60745e-05 5.66895 0.260177 5.66895 0.581105ZM4.33115 12.3771L4.33115 0.581104C4.33115 0.346166 4.1896 0.134256 3.97262 0.0442525C3.75543 -0.0457509 3.50549 0.00411015 3.33943 0.170384L0.170288 3.33952C0.0568331 3.45298 -1.57427e-07 3.6015 -1.63928e-07 3.75024C-1.7043e-07 3.89898 0.0568331 4.04751 0.170288 4.16096C0.397198 4.38787 0.764818 4.38787 0.991939 4.16096L3.16914 1.98376L3.16914 12.3771C3.16914 12.698 3.42922 12.9581 3.75014 12.9581C4.07107 12.9581 4.33115 12.698 4.33115 12.3771Z" fill="#F9F9F9"/>
</svg>
