<svg width="13" height="14" viewBox="0 0 13 14" fill="none" xmlns="http://www.w3.org/2000/svg">
<path d="M6.82088 7.0084L6.92163 6.93283L6.94683 6.91603L6.98041 6.89644C7.04758 6.85446 7.11476 6.82087 7.18193 6.78728L7.23511 6.76209C7.31012 6.7318 7.38674 6.70564 7.46462 6.68373L7.52339 6.66973C7.58878 6.65264 7.65514 6.63956 7.72212 6.63055H7.77809C7.85729 6.62492 7.9368 6.62492 8.016 6.63055H8.08317C8.14981 6.63386 8.21618 6.64133 8.28189 6.65294H8.33507C8.41069 6.66859 8.48543 6.68821 8.55898 6.71171L8.63735 6.7397C8.69468 6.75963 8.75076 6.783 8.80528 6.80968L8.89764 6.85726C8.95283 6.88755 9.00611 6.9212 9.05718 6.95802L9.14115 7.01959C9.18694 7.05457 9.23085 7.09194 9.27269 7.13155L9.32028 7.17353C9.37272 7.22566 9.44365 7.25492 9.5176 7.25492C9.59154 7.25492 9.66248 7.22566 9.71492 7.17353C10.0715 6.81888 10.554 6.6198 11.057 6.6198C11.5599 6.6198 12.0424 6.81888 12.399 7.17353C12.4507 7.22627 12.5211 7.25645 12.595 7.2575C12.6324 7.2568 12.6694 7.24921 12.7041 7.23511C12.7547 7.21368 12.7979 7.17784 12.8282 7.13205C12.8586 7.08626 12.8748 7.03255 12.8749 6.97761C12.8764 5.3177 12.2367 3.72135 11.0894 2.52183C9.94202 1.32231 8.37565 0.612353 6.71732 0.540184V0.279888C6.71732 0.205657 6.68783 0.134467 6.63534 0.0819774C6.58285 0.0294882 6.51166 0 6.43743 0C6.3632 0 6.29201 0.0294882 6.23952 0.0819774C6.18703 0.134467 6.15754 0.205657 6.15754 0.279888V0.540184C4.4992 0.612353 2.93284 1.32231 1.78547 2.52183C0.638107 3.72135 -0.00156674 5.3177 2.88181e-06 6.97761C4.76575e-05 7.03255 0.0162605 7.08626 0.0466206 7.13205C0.0769807 7.17784 0.120145 7.21368 0.170735 7.23511C0.221971 7.25619 0.278312 7.26159 0.332621 7.25063C0.386931 7.23967 0.436766 7.21284 0.475813 7.17353C0.832432 6.81888 1.31493 6.6198 1.81788 6.6198C2.32082 6.6198 2.80332 6.81888 3.15994 7.17353C3.21238 7.22566 3.28332 7.25492 3.35726 7.25492C3.4312 7.25492 3.50214 7.22566 3.55458 7.17353C3.89718 6.8325 4.35702 6.63508 4.84023 6.62156C5.32344 6.60803 5.7936 6.77943 6.15474 7.10076V12.9C6.15805 13.0286 6.11394 13.1538 6.03083 13.2519C5.94773 13.3499 5.83143 13.414 5.70412 13.4318C5.6338 13.4401 5.56252 13.4334 5.49498 13.4122C5.42743 13.3909 5.36516 13.3556 5.31227 13.3085C5.25937 13.2615 5.21706 13.2037 5.18811 13.1391C5.15917 13.0745 5.14425 13.0044 5.14434 12.9336C5.14434 12.8594 5.11486 12.7882 5.06237 12.7357C5.00988 12.6832 4.93869 12.6537 4.86446 12.6537C4.79023 12.6537 4.71904 12.6832 4.66655 12.7357C4.61406 12.7882 4.58457 12.8594 4.58457 12.9336C4.5845 13.0817 4.61534 13.2281 4.6751 13.3635C4.73486 13.4989 4.82223 13.6204 4.93163 13.7201C5.12776 13.8986 5.38295 13.9983 5.64814 14H5.7489C6.0143 13.9677 6.25854 13.8389 6.43507 13.6381C6.6116 13.4373 6.70808 13.1786 6.70612 12.9112V7.09516C6.74217 7.06344 6.78053 7.03444 6.82088 7.0084ZM4.62095 6.06797H4.53979C4.4511 6.07909 4.36322 6.09591 4.27669 6.11835H4.23471L4.008 6.19392L3.93803 6.22191C3.8538 6.25753 3.77158 6.2977 3.69173 6.34226C4.04998 3.5098 5.03519 1.41623 6.16314 1.10276V6.39824C5.78127 6.17106 5.34517 6.05116 4.90084 6.05118H4.87845C4.79238 6.05211 4.70642 6.05772 4.62095 6.06797ZM8.81928 4.42783C8.85846 4.57057 8.89205 4.70772 8.92843 4.86725C8.92713 4.88776 8.92713 4.90832 8.92843 4.92883C8.95642 5.06597 8.98721 5.20872 9.0152 5.34306C9.0152 5.39344 9.03199 5.44662 9.04319 5.4998L9.10196 5.84126C9.12995 6.01479 9.15514 6.19112 9.17753 6.37025H9.15514C9.07838 6.32695 8.99891 6.28862 8.91724 6.2555L8.85846 6.23031L8.81928 6.20232C8.73811 6.17433 8.65694 6.14634 8.57577 6.12675H8.53659L8.46662 6.10996L8.28469 6.08197H8.22031H8.16434H8.11116C8.05518 6.08197 7.9964 6.08197 7.94043 6.08197H7.77809L7.62415 6.10156H7.57657L7.46462 6.12395H7.40584L7.30788 6.15194L7.22951 6.17433L7.10916 6.21631L7.05038 6.2387L6.96922 6.27229L6.92443 6.29468C6.86954 6.31929 6.81626 6.34734 6.7649 6.37865L6.72012 6.40384V1.13355C7.55978 1.37425 8.32667 2.62535 8.80528 4.41104L8.81928 4.42783ZM12.2871 6.38704C11.9022 6.16677 11.4649 6.05464 11.0214 6.06253C10.578 6.07041 10.1449 6.19801 9.7681 6.43183C9.7681 6.37585 9.7681 6.31987 9.7485 6.26389C9.72891 6.20792 9.73171 6.16314 9.72611 6.10996C9.70372 5.95042 9.68133 5.79368 9.65614 5.63974C9.65614 5.55578 9.62535 5.47461 9.61136 5.39344C9.59737 5.31227 9.56938 5.15834 9.54698 5.04358C9.52459 4.92883 9.505 4.85326 9.48261 4.76369C9.46022 4.67413 9.44063 4.57617 9.41824 4.48381C9.39584 4.39144 9.36506 4.28229 9.33987 4.18433C9.31468 4.08637 9.29788 4.02759 9.27549 3.95202C9.2531 3.87645 9.21112 3.7477 9.18033 3.64974L9.11316 3.45382C9.07957 3.35306 9.04319 3.2523 9.004 3.15434C8.98441 3.10116 8.96202 3.04518 8.93963 2.992C8.89764 2.89124 8.85846 2.79608 8.81648 2.71212C8.79409 2.66453 8.77169 2.62255 8.7521 2.57497C8.70452 2.47981 8.65974 2.38745 8.61216 2.29508C8.59257 2.2559 8.57297 2.22231 8.55058 2.18593C8.5002 2.09356 8.44982 2.004 8.39385 1.92003L8.33787 1.81927C8.27909 1.72971 8.22032 1.64574 8.16154 1.56457L8.12795 1.53938C8.06078 1.45542 7.99641 1.37425 7.92643 1.29868C9.0843 1.60122 10.1222 2.24999 10.9015 3.15827C11.6807 4.06654 12.1641 5.19104 12.2871 6.38145V6.38704ZM0.593366 6.38704C0.713281 5.19329 1.19564 4.06482 1.97565 3.15322C2.75567 2.24162 3.79597 1.59056 4.95682 1.28749C4.06958 2.2531 3.39505 4.08637 3.12075 6.42623C2.74294 6.19081 2.30834 6.06231 1.86325 6.05442C1.41817 6.04653 0.979279 6.15956 0.593366 6.38145V6.38704Z" fill="#F9F9F9"/>
</svg>
