<svg width="66" height="64" viewBox="0 0 66 64" fill="none" xmlns="http://www.w3.org/2000/svg">
<path d="M65.0131 51.8154C64.6494 52.0133 64.6173 52.4143 64.4549 52.7357C61.8225 57.9616 57.8248 61.7021 52.3384 63.7897C51.1102 64.2583 50.0918 63.9284 49.6215 62.9709C49.075 61.8543 49.5876 60.7124 50.9495 60.1795C54.1577 58.9546 56.9602 56.8581 59.0412 54.1263C59.7828 53.1541 60.4234 52.1089 60.9529 51.0067C62.0509 48.7398 63.296 48.5215 65.0131 50.2928V51.8154Z" fill="url(#paint0_linear)"/>
<path d="M58.8535 47.5923C58.7333 47.9673 58.5944 48.336 58.4373 48.6971C56.4309 52.8926 53.2673 55.8346 48.8907 57.4418C47.5373 57.9493 46.4241 57.5501 46.0282 56.469C45.612 55.3288 46.1331 54.3526 47.5085 53.8299C50.9563 52.5204 53.4415 50.1875 55.0064 46.8598C55.4699 45.8718 56.2059 45.2983 57.3241 45.5588C58.3003 45.7855 58.7689 46.513 58.8535 47.5923Z" fill="url(#paint1_linear)"/>
<path fill-rule="evenodd" clip-rule="evenodd" d="M28.9837 11.1013C26.4586 13.6266 23.901 16.1843 21.2872 18.8035C21.5326 17.7792 21.7776 16.7935 22.0163 15.8331C22.5195 13.8084 22.9948 11.8957 23.3884 9.96908C24.1886 6.00697 21.8725 2.52532 18.0102 1.67944C14.3932 0.884307 10.7898 3.1665 9.90499 7.00342C8.30628 13.9515 5.7737 20.5274 2.53905 26.8715C0.206107 31.4443 -0.539962 36.3691 0.387125 41.4105C2.05013 50.4767 7.2337 56.9139 15.8888 60.047C24.7316 63.2478 33.1448 61.7929 40.0962 55.3913C45.4086 50.5039 50.4792 45.3449 55.5491 40.1865C57.4201 38.2829 59.291 36.3793 61.1739 34.4895C62.6305 33.0261 63.1195 31.1787 62.7811 29.1182C62.4089 26.8512 61.0301 25.3608 58.9915 24.2662C59.2488 24.0122 59.5009 23.765 59.7488 23.5219C60.2821 22.9991 60.7962 22.495 61.3008 21.9823C64.9432 18.2706 63.8232 13.0396 58.9746 11.1652C58.4823 10.974 58.2962 10.8167 58.3216 10.2042C58.5196 5.32181 54.0381 2.10069 49.4889 3.84659C48.8883 4.07667 48.6582 4.05975 48.3571 3.45071C48.0015 2.7022 47.4922 2.03706 46.8623 1.49865C46.2323 0.960251 45.496 0.560687 44.7012 0.326024C42.1213 -0.457263 39.8831 0.185609 37.9798 2.09561C35.0004 5.08427 32.0154 8.06939 28.9837 11.1013ZM5.90231 28.9067C-0.499323 42.1735 9.35351 57.6328 24.0719 57.6515C29.2351 57.6515 34.1091 55.8853 37.7667 52.3055C42.6815 47.5014 47.5404 42.6413 52.3986 37.7818C54.2963 35.8835 56.194 33.9853 58.0949 32.0906C58.5247 31.6643 58.8698 31.1956 58.9408 30.568C59.0694 29.443 58.6718 28.5548 57.6686 28.0303C56.547 27.4433 55.5319 27.7461 54.6691 28.6038C51.7615 31.5024 48.8545 34.3948 45.9481 37.2809C45.8355 37.393 45.7235 37.506 45.6116 37.619C45.3368 37.8965 45.0618 38.1741 44.7757 38.4398C43.8063 39.3432 42.6407 39.3804 41.854 38.5751C41.0673 37.7698 41.1468 36.6211 42.0638 35.645C42.198 35.5006 42.3397 35.3638 42.4814 35.2269C42.5523 35.1585 42.6232 35.0901 42.6931 35.0207L58.0645 19.7136C58.4049 19.3985 58.722 19.0593 59.0136 18.6986C59.6903 17.785 59.714 16.7987 59.0965 15.8615C58.479 14.9242 57.5519 14.5774 56.4489 14.794C55.8064 14.9181 55.3632 15.364 54.9247 15.8052C54.8852 15.8449 54.8457 15.8846 54.8062 15.9241C49.9936 20.7343 45.1676 25.5372 40.328 30.3328C39.2825 31.3682 38.1609 31.4274 37.315 30.568C36.4996 29.7424 36.5909 28.5751 37.606 27.56C39.9113 25.2592 42.2121 22.959 44.5084 20.6593C47.5242 17.6356 50.5497 14.6214 53.5847 11.6168C54.3578 10.8522 54.6048 9.94876 54.2851 8.954C53.9823 8.01 53.2497 7.43141 52.255 7.26224C51.1756 7.08291 50.4296 7.68687 49.7173 8.4008C44.6387 13.4919 39.5566 18.5751 34.4711 23.6504C34.4048 23.7167 34.339 23.7846 34.273 23.8527C34.0127 24.1212 33.7499 24.3922 33.4409 24.5825C32.5713 25.112 31.7153 24.975 31.0267 24.2442C30.3771 23.5573 30.2823 22.7284 30.8 21.918C31.0725 21.5418 31.3838 21.1953 31.7288 20.8843C35.7665 16.8478 39.8019 12.8101 43.8351 8.77129C44.1445 8.48377 44.4318 8.17329 44.6945 7.84251C45.4693 6.797 45.3492 5.53495 44.4323 4.62816C43.5153 3.72138 42.2533 3.63171 41.2179 4.42853C40.8936 4.69924 40.5873 4.99085 40.301 5.30148C33.4798 12.1182 26.6648 18.9371 19.856 25.7583C18.9983 26.6228 18.1169 27.5076 16.799 26.7463C15.4895 25.9899 15.7851 24.8008 16.0777 23.624L16.0834 23.6013C17.2383 18.9354 18.3796 14.265 19.5075 9.59011C19.9896 7.55661 19.1268 6.00018 17.3082 5.54341C15.6384 5.12385 14.0786 6.08308 13.6574 7.97955C12.0299 15.315 9.15727 22.1599 5.90231 28.9067Z" fill="url(#paint2_linear)"/>
<defs>
<linearGradient id="paint0_linear" x1="49.4062" y1="56.5579" x2="65.0131" y2="56.5579" gradientUnits="userSpaceOnUse">
<stop stop-color="#F04ADC"/>
<stop offset="1" stop-color="#00DBFF"/>
</linearGradient>
<linearGradient id="paint1_linear" x1="45.8887" y1="51.5781" x2="58.8535" y2="51.5781" gradientUnits="userSpaceOnUse">
<stop stop-color="#F04ADC"/>
<stop offset="1" stop-color="#00DBFF"/>
</linearGradient>
<linearGradient id="paint2_linear" x1="-4.80141e-08" y1="30.8429" x2="63.4519" y2="30.8429" gradientUnits="userSpaceOnUse">
<stop stop-color="#F04ADC"/>
<stop offset="1" stop-color="#00DBFF"/>
</linearGradient>
</defs>
</svg>
