<svg width="24" height="24" viewBox="0 0 24 24" fill="none" xmlns="http://www.w3.org/2000/svg">
<path d="M12.4836 0C12.9335 0.0873392 13.3942 0.109691 13.8405 0.225592C17.3746 1.14369 19.6218 3.37394 20.6161 6.87745C20.7444 7.33277 20.5499 7.69703 20.1152 7.87916C20.0431 7.90811 19.9778 7.95181 19.9236 8.00748C17.9342 10.0603 15.9445 12.1126 13.9543 14.1643C13.939 14.1821 13.9251 14.2013 13.9129 14.2214C13.9675 14.293 14.0433 14.2628 14.107 14.2628C14.6302 14.2657 15.1539 14.2628 15.6771 14.2649C16.3187 14.2686 16.6929 14.6453 16.6941 15.2893C16.6963 16.2502 16.6963 17.2109 16.6941 18.1715C16.6964 18.2261 16.6947 18.2807 16.6891 18.335C16.6606 18.5383 16.5153 18.6662 16.3245 18.6571C16.1336 18.648 16.0008 18.5138 15.9933 18.3044C15.9859 18.0705 15.9904 17.8358 15.9904 17.6007C15.9904 16.8354 15.9904 16.0692 15.9904 15.3046C15.9904 15.0368 15.9242 14.9677 15.6593 14.9673C13.1053 14.9673 10.5512 14.9673 7.99701 14.9673C7.72175 14.9673 7.65883 15.0348 7.65883 15.3191C7.65883 17.8579 7.65883 20.3967 7.65883 22.9354C7.65883 23.2331 7.71926 23.2935 8.01274 23.2939C8.95098 23.2939 9.8884 23.2939 10.825 23.2939C10.8951 23.2901 10.9654 23.2915 11.0353 23.298C11.231 23.3279 11.3498 23.445 11.3507 23.6433C11.3515 23.8415 11.2339 23.9653 11.0386 23.9901C10.9061 24.0007 10.7731 24.0028 10.6404 23.9963C9.75014 23.9963 8.85978 23.9963 7.96928 23.9963C7.34093 23.9963 6.95681 23.618 6.95639 22.9938C6.95474 20.4161 6.95474 17.8386 6.95639 15.2612C6.95639 14.6498 7.33886 14.2678 7.95314 14.2649C8.54464 14.2603 9.13573 14.2649 9.73304 14.2649C9.72517 14.1527 9.65025 14.1154 9.59768 14.0637C7.67456 12.0768 5.75048 10.0915 3.82542 8.10765C3.72587 7.99894 3.60459 7.91235 3.46944 7.85349C3.09235 7.69537 2.92347 7.30628 3.03275 6.87745C3.55223 4.86368 4.62183 3.20754 6.25271 1.92229C7.65014 0.821237 9.24336 0.199514 11.0158 0.0384954C11.0685 0.0298754 11.1204 0.0170016 11.171 0H12.4836ZM11.4753 3.97869C11.4753 2.97243 11.4707 1.96575 11.4794 0.95949C11.4794 0.752525 11.4157 0.722722 11.2335 0.772393C10.8558 0.87241 10.5016 1.04614 10.1913 1.2836C9.57036 1.76003 9.13656 2.38465 8.78389 3.07053C8.1481 4.31232 7.79046 5.6369 7.58101 7.00908C7.55204 7.20031 7.60254 7.22805 7.77515 7.22722C8.9296 7.2206 10.0845 7.21811 11.2393 7.22722C11.4463 7.22722 11.4802 7.15851 11.4786 6.97348C11.4711 5.97632 11.4753 4.97958 11.4753 3.97869ZM12.1789 3.95841C12.1789 4.97296 12.1823 5.98667 12.1752 7.00121C12.1752 7.16968 12.2116 7.22929 12.3938 7.22805C13.564 7.21935 14.7346 7.22101 15.9047 7.22805C16.0604 7.22805 16.1022 7.19203 16.0765 7.03143C15.9982 6.50741 15.8922 5.98789 15.759 5.47505C15.4171 4.21836 14.9651 3.01093 14.1344 1.98272C13.679 1.41978 13.1351 0.9806 12.419 0.782328C12.2332 0.731 12.1732 0.758734 12.1748 0.962801C12.1835 1.9612 12.1794 2.96001 12.1794 3.95841H12.1789ZM14.2979 1.0965C14.7856 1.61543 15.1998 2.19886 15.5289 2.83045C16.2185 4.14634 16.5865 5.55908 16.7785 7.02108C16.8025 7.20238 16.8704 7.22805 17.0269 7.22805C17.909 7.22142 18.7911 7.22515 19.6731 7.22473C19.9654 7.22473 19.9815 7.20569 19.9008 6.9118C19.4625 5.31403 18.6433 3.94475 17.4189 2.82714C16.5291 2.01313 15.46 1.42023 14.2983 1.0965H14.2979ZM9.27233 1.0965C9.07737 1.16852 8.8791 1.23268 8.68786 1.31381C6.1295 2.39886 4.47971 4.28086 3.7385 6.95982C3.68552 7.1494 3.7178 7.23012 3.93636 7.22805C4.84162 7.22018 5.74689 7.22267 6.65257 7.22805C6.79082 7.22805 6.85208 7.20362 6.87361 7.04467C6.93238 6.61253 7.00151 6.17998 7.0992 5.75528C7.49078 4.05651 8.08104 2.45129 9.27274 1.09526L9.27233 1.0965ZM11.4749 11.1136C11.4749 10.1202 11.472 9.12964 11.4777 8.13786C11.4777 7.97767 11.4335 7.92303 11.2675 7.92386C10.1739 7.93076 9.08027 7.93076 7.98666 7.92386C7.79005 7.92386 7.78467 7.96815 7.87366 8.12545C8.99955 10.1148 10.1232 12.1055 11.2447 14.0976C11.2828 14.1655 11.3006 14.2856 11.4173 14.2483C11.5154 14.2168 11.4728 14.1134 11.4732 14.0413C11.4765 13.0657 11.4753 12.0892 11.4753 11.1128L11.4749 11.1136ZM12.1785 11.0946C12.1785 12.0772 12.1785 13.0603 12.1785 14.043C12.1785 14.1142 12.1371 14.2168 12.2344 14.25C12.3511 14.2872 12.3685 14.1672 12.407 14.0997C13.5296 12.1128 14.652 10.1249 15.7743 8.13579C15.8741 7.95946 15.8542 7.92386 15.6522 7.9251C14.576 7.93255 13.4998 7.93255 12.4236 7.9251C12.2303 7.9251 12.1711 7.97478 12.1732 8.17139C12.1843 9.1433 12.1789 10.1185 12.1794 11.0937L12.1785 11.0946ZM4.63259 7.92676L10.0741 13.5368C10.0741 13.485 10.0795 13.4676 10.0741 13.4569C9.05667 11.6499 8.03923 9.84326 7.02179 8.03687C7.00621 8.00163 6.98019 7.97203 6.94725 7.95204C6.91432 7.93206 6.87604 7.92266 6.83759 7.9251C6.12688 7.928 5.4174 7.92676 4.63259 7.92676ZM18.9827 7.96815C18.895 7.90441 18.8234 7.92676 18.7571 7.92676C18.1482 7.92428 17.5393 7.93173 16.9305 7.92138C16.7607 7.91848 16.6676 7.96898 16.5827 8.12006C15.6169 9.84864 14.6457 11.5749 13.6691 13.2987C13.6331 13.3629 13.5731 13.4204 13.5809 13.5368C15.3906 11.672 17.1838 9.82256 18.9827 7.96815Z" fill="#AD84FF"/>
<path d="M14.2469 23.9966C13.7469 23.9966 13.2473 23.9966 12.7473 23.9966C12.4596 23.9966 12.292 23.8608 12.2978 23.6377C12.3023 23.4224 12.4633 23.295 12.7386 23.2945C13.6915 23.2945 14.6443 23.2945 15.5972 23.2945C15.9424 23.2945 15.9929 23.2457 15.9929 22.9071C15.9929 21.9462 15.9929 20.9855 15.9929 20.0249C15.9929 19.8457 16.0372 19.7008 16.2173 19.6288C16.4702 19.5278 16.6937 19.707 16.6953 20.0249C16.6995 20.7509 16.6953 21.4774 16.6953 22.2038C16.6953 22.4774 16.6982 22.7506 16.6953 23.0238C16.6871 23.6066 16.3013 23.992 15.7218 23.9957C15.2309 23.9991 14.7391 23.9966 14.2469 23.9966Z" fill="#AD84FF"/>
<path d="M9 18.612C9.02107 18.5021 9.03539 18.3908 9.07028 18.2834C9.17695 17.9573 9.39147 17.6777 9.67815 17.4912C9.96484 17.3047 10.3064 17.2224 10.6461 17.2582C11.0081 17.2975 11.3148 17.4491 11.571 17.7077C11.6089 17.746 11.6429 17.8121 11.6881 17.8131C11.7333 17.8141 11.7677 17.747 11.8061 17.7089C12.1207 17.3927 12.5004 17.24 12.9454 17.2507C13.6374 17.2665 14.2547 17.8097 14.3574 18.4968C14.4339 19.0098 14.2803 19.4531 13.936 19.8303C13.5974 20.2018 13.2149 20.5273 12.837 20.8569C12.5225 21.1312 12.2025 21.399 11.8806 21.6643C11.7434 21.7774 11.6364 21.779 11.5007 21.6665C10.8798 21.1517 10.2606 20.6348 9.67919 20.0741C9.49212 19.8939 9.30943 19.7094 9.18758 19.4744C9.09176 19.2942 9.03134 19.0972 9.00961 18.8941C9.0076 18.884 9.00455 18.8742 9.00051 18.8648L9 18.612ZM9.47645 18.7052C9.47448 18.8933 9.51833 19.0791 9.60419 19.2462C9.69739 19.428 9.84014 19.5681 9.98339 19.7077C10.5166 20.2244 11.0858 20.7 11.6536 21.1772C11.6849 21.2035 11.7021 21.1942 11.7279 21.173C12.1073 20.8561 12.4848 20.5369 12.8539 20.2074C13.1078 19.9811 13.3642 19.7565 13.5912 19.5022C13.8634 19.1973 13.9728 18.8434 13.8553 18.4433C13.6443 17.7255 12.7286 17.4872 12.1851 18.0042C12.0796 18.1045 11.9792 18.21 11.876 18.3128C11.7614 18.427 11.6151 18.4269 11.5 18.3128C11.4068 18.22 11.3146 18.1265 11.2214 18.0332C11.0553 17.8639 10.8357 17.7581 10.6004 17.7338C10.0045 17.6657 9.47762 18.1345 9.47645 18.7052Z" fill="#AD84FF"/>
</svg>
