<svg width="12" height="12" viewBox="0 0 12 12" fill="none" xmlns="http://www.w3.org/2000/svg">
<path d="M6.02585 11.9994C6.23072 11.9951 6.42652 11.922 6.57536 11.7943L11.7473 7.29294C11.9051 7.15444 11.996 6.96485 11.9999 6.76573C12.0038 6.56662 11.9204 6.37422 11.7681 6.23072C11.6158 6.08721 11.407 6.0043 11.1874 6.00016C10.9678 5.99602 10.7553 6.07099 10.5966 6.20864L5.99999 10.2118L1.40342 6.20864C1.24468 6.07099 1.03222 5.99602 0.812602 6.00016C0.592989 6.0043 0.384145 6.08721 0.231846 6.23072C0.0795464 6.37422 -0.00377612 6.56662 0.000131246 6.76573C0.00403862 6.96485 0.0948591 7.15444 0.252692 7.29294L5.42463 11.7943C5.5047 11.8631 5.59914 11.9167 5.70239 11.9519C5.80564 11.9871 5.91562 12.0033 6.02585 11.9994Z" fill="#EB5FE2"/>
<path d="M6.02585 5.99944C6.23072 5.9951 6.42652 5.92201 6.57536 5.79431L11.7473 1.29294C11.9051 1.15444 11.996 0.964848 11.9999 0.765734C12.0038 0.56662 11.9204 0.374224 11.7681 0.230717C11.6158 0.0872106 11.407 0.00430105 11.1874 0.000162589C10.9678 -0.00397587 10.7553 0.0709939 10.5966 0.208639L5.99999 4.21178L1.40342 0.20864C1.24468 0.0709943 1.03222 -0.00397544 0.812602 0.000163043C0.592989 0.00430152 0.384145 0.0872111 0.231846 0.230718C0.0795464 0.374224 -0.00377612 0.56662 0.000131246 0.765734C0.00403862 0.964848 0.0948591 1.15444 0.252692 1.29294L5.42463 5.79431C5.5047 5.86311 5.59914 5.91669 5.70239 5.95192C5.80564 5.98715 5.91562 6.0033 6.02585 5.99944Z" fill="#EB5FE2"/>
</svg>
