<svg width="14" height="7" viewBox="0 0 14 7" fill="none" xmlns="http://www.w3.org/2000/svg">
<path d="M7.03016 0.000653818C7.26917 0.0057177 7.49761 0.090993 7.67125 0.239973L13.7052 5.49157C13.8893 5.65316 13.9953 5.87434 13.9998 6.10664C14.0044 6.33894 13.9072 6.56341 13.7295 6.73083C13.5518 6.89825 13.3082 6.99498 13.0519 6.99981C12.7957 7.00464 12.5479 6.91717 12.3627 6.75659L6.99999 2.08625L1.63733 6.75659C1.45212 6.91717 1.20425 7.00464 0.948036 6.99981C0.691821 6.99498 0.448169 6.89825 0.270487 6.73083C0.0928041 6.56341 -0.00440548 6.33894 0.000153121 6.10664C0.00471172 5.87434 0.110669 5.65316 0.294808 5.49157L6.32873 0.239973C6.42216 0.159711 6.53233 0.0971925 6.65279 0.0560939C6.77325 0.0149954 6.90155 -0.0038541 7.03016 0.000653818Z" fill="#F9F9F9"/>
</svg>
