<svg width="12" height="12" viewBox="0 0 12 12" fill="none" xmlns="http://www.w3.org/2000/svg">
<path d="M6.02585 0.000560416C6.23072 0.00490089 6.42652 0.077994 6.57536 0.205691L11.7473 4.70706C11.9051 4.84556 11.996 5.03515 11.9999 5.23427C12.0038 5.43338 11.9204 5.62578 11.7681 5.76928C11.6158 5.91279 11.407 5.9957 11.1874 5.99984C10.9678 6.00398 10.7553 5.92901 10.5966 5.79136L5.99999 1.78822L1.40342 5.79136C1.24468 5.92901 1.03222 6.00398 0.812602 5.99984C0.592989 5.9957 0.384145 5.91279 0.231846 5.76928C0.0795464 5.62578 -0.00377612 5.43338 0.000131246 5.23427C0.00403862 5.03515 0.0948591 4.84556 0.252692 4.70706L5.42463 0.205691C5.5047 0.136895 5.59914 0.0833079 5.70239 0.0480805C5.80564 0.0128532 5.91562 -0.00330352 6.02585 0.000560416Z" fill="#EB5FE2"/>
<path d="M6.02585 6.00056C6.23072 6.0049 6.42652 6.07799 6.57536 6.20569L11.7473 10.7071C11.9051 10.8456 11.996 11.0352 11.9999 11.2343C12.0038 11.4334 11.9204 11.6258 11.7681 11.7693C11.6158 11.9128 11.407 11.9957 11.1874 11.9998C10.9678 12.004 10.7553 11.929 10.5966 11.7914L5.99999 7.78822L1.40342 11.7914C1.24468 11.929 1.03222 12.004 0.812602 11.9998C0.592989 11.9957 0.384145 11.9128 0.231846 11.7693C0.0795464 11.6258 -0.00377612 11.4334 0.000131246 11.2343C0.00403862 11.0352 0.0948591 10.8456 0.252692 10.7071L5.42463 6.20569C5.5047 6.13689 5.59914 6.08331 5.70239 6.04808C5.80564 6.01285 5.91562 5.9967 6.02585 6.00056Z" fill="#EB5FE2"/>
</svg>
