<svg width="32" height="32" viewBox="0 0 32 32" fill="none" xmlns="http://www.w3.org/2000/svg">
<path d="M15.9932 25.8437C10.5648 25.8437 6.14844 21.4273 6.14844 15.999C6.14844 10.5707 10.5648 6.1543 15.9932 6.1543C21.4215 6.1543 25.8379 10.5707 25.8379 15.999C25.8379 21.4272 21.4215 25.8437 15.9932 25.8437ZM15.9932 7.38491C11.2432 7.38491 7.37905 11.2497 7.37905 15.999C7.37905 20.7482 11.2432 24.6131 15.9932 24.6131C20.7423 24.6131 24.6073 20.7483 24.6073 15.999C24.6073 11.2496 20.7423 7.38491 15.9932 7.38491Z" fill="#43B8D2"/>
<path d="M12.6457 4.13048C12.374 4.13048 12.1253 3.94887 12.0521 3.6737C11.9645 3.34573 12.1596 3.00791 12.4878 2.92019C14.7692 2.31211 17.2263 2.31442 19.4976 2.91895C19.8256 3.00668 20.0215 3.34434 19.9338 3.67246C19.8473 3.99935 19.5144 4.19404 19.1802 4.10878C17.1181 3.55596 14.8791 3.55719 12.805 4.11001C12.752 4.12325 12.6986 4.13048 12.6457 4.13048Z" fill="#43B8D2"/>
<path d="M19.3388 4.12938C19.2858 4.12938 19.2329 4.12214 19.1802 4.10891C18.8509 4.01995 18.6562 3.68336 18.7439 3.3554L19.3797 0.981903C19.4687 0.653936 19.8099 0.466328 20.1332 0.545742C20.4624 0.634698 20.6571 0.971284 20.5694 1.29925L19.9336 3.67259C19.8591 3.94777 19.6104 4.12938 19.3388 4.12938Z" fill="#43B8D2"/>
<path d="M12.6457 4.13056C12.374 4.13056 12.1253 3.94895 12.0521 3.67377L11.4175 1.2992C11.3298 0.971233 11.5245 0.633416 11.8532 0.545691C12.177 0.466431 12.5184 0.653885 12.6061 0.981852L13.2407 3.35658C13.3284 3.68455 13.1337 4.02236 12.8051 4.11009C12.752 4.12332 12.6986 4.13056 12.6457 4.13056Z" fill="#43B8D2"/>
<path d="M4.79831 10.1524C4.69381 10.1524 4.58792 10.1259 4.49127 10.0695C4.19685 9.90001 4.09589 9.52387 4.26596 9.22946C4.85356 8.21277 5.57829 7.27058 6.41952 6.42703C7.26491 5.58349 8.20772 4.85876 9.22256 4.27224C9.51575 4.10048 9.89204 4.20252 10.0632 4.49694C10.2332 4.79135 10.1323 5.16749 9.83787 5.33694C8.91614 5.87052 8.05859 6.52907 7.29015 7.29705C6.52464 8.06364 5.86547 8.92057 5.33189 9.84476C5.21769 10.0419 5.01116 10.1524 4.79831 10.1524Z" fill="#43B8D2"/>
<path d="M9.53079 5.41976C9.3181 5.41976 9.1114 5.30926 8.99721 5.11211L7.76906 2.98517C7.59915 2.69075 7.69996 2.31461 7.99437 2.14517C8.28633 1.97203 8.6637 2.07545 8.83499 2.36987L10.0631 4.49696C10.2332 4.79138 10.1322 5.16752 9.83783 5.33696C9.74102 5.39345 9.63529 5.41976 9.53079 5.41976Z" fill="#43B8D2"/>
<path d="M4.79821 10.1525C4.69371 10.1525 4.58783 10.126 4.49118 10.0695L2.36285 8.84017C2.06844 8.67072 1.96748 8.29458 2.13754 8.00017C2.30806 7.70575 2.68374 7.60248 2.97816 7.77547L5.10633 9.00485C5.40075 9.17429 5.50171 9.55043 5.33164 9.84485C5.2176 10.042 5.01106 10.1525 4.79821 10.1525Z" fill="#43B8D2"/>
<path d="M3.50643 19.9611C3.23417 19.9611 2.98547 19.7796 2.91221 19.5044C2.61117 18.37 2.45681 17.1911 2.45435 16.0015C2.45435 14.8093 2.60871 13.6304 2.91282 12.4948C3.00178 12.1679 3.34006 11.9817 3.66633 12.0597C3.99445 12.1486 4.18976 12.4852 4.10142 12.8144C3.82501 13.8454 3.68496 14.9175 3.68496 16.0002C3.68742 17.0829 3.82747 18.1561 4.10203 19.1873C4.18914 19.5165 3.99384 19.8529 3.6651 19.9408C3.61216 19.9551 3.55875 19.9611 3.50643 19.9611Z" fill="#43B8D2"/>
<path d="M3.50767 13.2698C3.45473 13.2698 3.40071 13.2626 3.34731 13.2481L0.975042 12.6112C0.646921 12.5235 0.452234 12.1858 0.540574 11.8577C0.628915 11.5308 0.96904 11.3361 1.2947 11.4239L3.66696 12.0607C3.99508 12.1484 4.18977 12.4863 4.10143 12.8142C4.0274 13.0885 3.77931 13.2698 3.50767 13.2698Z" fill="#43B8D2"/>
<path d="M1.13294 20.5957C0.861305 20.5957 0.612599 20.4142 0.539341 20.1389C0.451616 19.8109 0.646303 19.4733 0.97504 19.3854L3.34838 18.7509C3.67404 18.6691 4.01355 18.859 4.10127 19.1872C4.189 19.5151 3.99431 19.8528 3.66557 19.9407L1.29223 20.5752C1.23945 20.5885 1.18589 20.5957 1.13294 20.5957Z" fill="#43B8D2"/>
<path d="M9.52954 27.8096C9.42504 27.8096 9.31869 27.7832 9.22127 27.7267C8.20643 27.1378 7.26424 26.4145 6.42131 25.5743C5.58008 24.7343 4.85473 23.7911 4.26467 22.7707C4.09476 22.4763 4.19557 22.1001 4.48998 21.9307C4.78194 21.7589 5.15992 21.861 5.3306 22.1554C5.86603 23.0819 6.5252 23.9399 7.2901 24.7031C8.0573 25.4674 8.91547 26.1272 9.83904 26.662C10.1328 26.8325 10.2333 27.2088 10.0625 27.5032C9.94831 27.7002 9.74162 27.8096 9.52954 27.8096Z" fill="#43B8D2"/>
<path d="M2.67112 24.3052C2.45843 24.3052 2.25158 24.1946 2.13754 23.9976C1.96748 23.7032 2.06844 23.327 2.36285 23.1564L4.48995 21.9293C4.7819 21.7611 5.15989 21.8608 5.33057 22.1552C5.50063 22.4496 5.39967 22.8258 5.10525 22.9965L2.97831 24.2234C2.88151 24.2789 2.77577 24.3052 2.67112 24.3052Z" fill="#43B8D2"/>
<path d="M8.30026 29.938C8.19576 29.938 8.09003 29.9115 7.99322 29.855C7.69881 29.6854 7.59785 29.3094 7.76791 29.015L8.99729 26.8867C9.16781 26.591 9.54288 26.4901 9.83791 26.662C10.1323 26.8314 10.2333 27.2076 10.0632 27.502L8.83384 29.6303C8.71965 29.8273 8.51296 29.938 8.30026 29.938Z" fill="#43B8D2"/>
<path d="M15.995 29.5389C14.8029 29.5389 13.6233 29.385 12.4871 29.081C12.1589 28.9921 11.9644 28.6556 12.052 28.3275C12.1397 27.9994 12.4805 27.8109 12.8055 27.8914C13.8377 28.1678 14.9103 28.3083 15.9931 28.3083C17.0795 28.3047 18.1526 28.1641 19.1802 27.8914C19.5215 27.8013 19.847 27.9996 19.9337 28.3275C20.0202 28.6569 19.8255 28.9933 19.4975 29.081C18.3666 29.3815 17.189 29.5354 15.995 29.5389Z" fill="#43B8D2"/>
<path d="M12.0111 31.4737C11.9583 31.4737 11.9048 31.4665 11.8512 31.4533C11.5231 31.3643 11.3286 31.0279 11.4161 30.6987L12.0517 28.3264C12.1395 27.9995 12.4802 27.8108 12.8053 27.8913C13.1332 27.9803 13.3279 28.3167 13.2402 28.6461L12.6046 31.0183C12.5316 31.2923 12.2828 31.4737 12.0111 31.4737Z" fill="#43B8D2"/>
<path d="M19.9732 31.4748C19.7005 31.4748 19.4529 31.2933 19.3784 31.0182L18.7438 28.6447C18.6561 28.3165 18.852 27.9789 19.1802 27.8912C19.5143 27.8082 19.8446 27.9994 19.9337 28.3273L20.5682 30.7008C20.6559 31.0289 20.46 31.3666 20.1321 31.4543C20.0791 31.4676 20.0249 31.4748 19.9732 31.4748Z" fill="#43B8D2"/>
<path d="M22.4549 27.811C22.2434 27.811 22.0355 27.7003 21.9225 27.5033C21.752 27.2089 21.853 26.8327 22.1472 26.6633C23.075 26.1274 23.9319 25.4687 24.6962 24.7032C25.4605 23.934 26.1202 23.076 26.6551 22.1542C26.8256 21.8586 27.2042 21.7613 27.4963 21.9306C27.7907 22.1013 27.8904 22.4787 27.7198 22.7719C27.1309 23.785 26.4076 24.7272 25.5674 25.572C24.7263 26.4144 23.7829 27.139 22.7625 27.7278C22.6654 27.7845 22.5595 27.811 22.4549 27.811Z" fill="#43B8D2"/>
<path d="M23.6844 29.9379C23.4729 29.9379 23.2661 29.8274 23.152 29.6303L21.9227 27.5032C21.7521 27.2088 21.8531 26.8326 22.1474 26.6632C22.4384 26.4913 22.8168 26.5935 22.9875 26.8879L24.2167 29.015C24.3874 29.3094 24.2865 29.6854 23.992 29.855C23.8958 29.9115 23.7889 29.9379 23.6844 29.9379Z" fill="#43B8D2"/>
<path d="M29.3157 24.3077C29.211 24.3077 29.1053 24.2812 29.008 24.2247L26.8797 22.9953C26.5853 22.8259 26.4845 22.4497 26.655 22.1553C26.8244 21.8609 27.2018 21.7612 27.495 21.9306L29.6232 23.16C29.9177 23.3295 30.0185 23.7056 29.848 24C29.7351 24.197 29.5271 24.3077 29.3157 24.3077Z" fill="#43B8D2"/>
<path d="M28.478 19.9612C28.4252 19.9612 28.3712 19.9539 28.3183 19.9395C27.9902 19.8517 27.7956 19.5141 27.8844 19.1859C28.161 18.156 28.3015 17.0841 28.3015 15.9989C28.2967 14.9077 28.1562 13.8346 27.8832 12.8131C27.7956 12.485 27.9914 12.1473 28.3195 12.0596C28.6524 11.9767 28.9853 12.1678 29.073 12.4959C29.3724 13.6196 29.5273 14.7972 29.5321 15.9966C29.5321 17.1923 29.3771 18.3724 29.0718 19.5056C28.9985 19.7808 28.7498 19.9612 28.478 19.9612Z" fill="#43B8D2"/>
<path d="M30.8515 20.597C30.7985 20.597 30.7458 20.5898 30.693 20.5765L28.3195 19.9408C27.9901 19.8518 27.7956 19.5154 27.8832 19.1872C27.9721 18.8591 28.3135 18.6704 28.6367 18.7509L31.0102 19.3867C31.3395 19.4757 31.534 19.8121 31.4463 20.1402C31.3718 20.4156 31.1233 20.597 30.8515 20.597Z" fill="#43B8D2"/>
<path d="M28.478 13.2697C28.2065 13.2697 27.9576 13.0883 27.8832 12.8131C27.7956 12.485 27.9901 12.1473 28.3195 12.0596L30.6954 11.424C31.0271 11.3422 31.3598 11.5321 31.4489 11.8601C31.5367 12.1882 31.342 12.5259 31.0128 12.6136L28.6368 13.2492C28.5839 13.2625 28.5297 13.2697 28.478 13.2697Z" fill="#43B8D2"/>
<path d="M16.0077 32C10.3017 32 4.98757 28.9344 2.13898 23.9989C-2.26973 16.357 0.356781 6.55319 7.99438 2.14633C10.4267 0.742736 13.1883 0 15.98 0C21.6845 0 26.9988 3.0656 29.848 8.00112C34.2547 15.6407 31.6277 25.4445 23.9918 29.8537C21.5608 31.2574 18.7991 32 16.0077 32ZM15.98 1.23076C13.4035 1.23076 10.8551 1.91579 8.60953 3.21119C1.55954 7.28023 -0.865054 16.3294 3.20476 23.3836C5.8342 27.9394 10.7403 30.7695 16.0077 30.7695C18.5841 30.7695 21.1319 30.0845 23.3767 28.7891C30.425 24.7176 32.8502 15.6686 28.7822 8.61657C26.1526 4.06073 21.2461 1.23076 15.98 1.23076Z" fill="#43B8D2"/>
<path d="M27.1873 10.1523C26.9746 10.1523 26.7678 10.0416 26.6537 9.84461C26.1201 8.91919 25.4616 8.06118 24.6961 7.29567C23.9256 6.53138 23.0664 5.8716 22.1459 5.33679C21.8516 5.16611 21.7518 4.78997 21.9224 4.49555C22.093 4.19991 22.4705 4.10264 22.7637 4.27193C23.7756 4.85953 24.7178 5.58319 25.5649 6.42427C26.4086 7.26781 27.1331 8.21124 27.7209 9.22915C27.8903 9.52357 27.7894 9.89971 27.495 10.0704C27.3977 10.1259 27.292 10.1523 27.1873 10.1523Z" fill="#43B8D2"/>
<path d="M27.1873 10.1524C26.9746 10.1524 26.7678 10.0418 26.655 9.84478C26.4845 9.55037 26.5853 9.17423 26.8797 9.00478L29.008 7.77663C29.3024 7.60488 29.6784 7.70691 29.848 8.00133C30.0185 8.29575 29.9177 8.67189 29.6232 8.84133L27.495 10.0695C27.3977 10.1261 27.292 10.1524 27.1873 10.1524Z" fill="#43B8D2"/>
<path d="M22.4549 5.41984C22.3492 5.41984 22.2434 5.39336 22.1472 5.33688C21.853 5.1662 21.752 4.79006 21.9225 4.49688L23.1544 2.36855C23.3249 2.0729 23.7047 1.97318 23.9944 2.14385C24.2888 2.31453 24.3898 2.69067 24.2191 2.98386L22.9874 5.11203C22.8732 5.30949 22.6665 5.41984 22.4549 5.41984Z" fill="#43B8D2"/>
<path d="M19.036 21.4754C18.9375 21.4754 18.8403 21.4526 18.7501 21.4044L15.9946 19.9551L13.2383 21.4044C13.0316 21.5162 12.7799 21.4959 12.5901 21.3575C12.4008 21.2205 12.3058 20.9874 12.3455 20.7554L12.8725 17.6863L10.6426 15.5135C10.475 15.3501 10.415 15.105 10.487 14.8826C10.559 14.6603 10.752 14.497 10.9833 14.4633L14.0646 14.0149L15.443 11.2233C15.5463 11.0143 15.7603 10.8809 15.9946 10.8809C16.2288 10.8809 16.4428 11.0143 16.5462 11.2233L17.9233 14.0149L21.0046 14.4633C21.2367 14.497 21.4289 14.6603 21.5011 14.8826C21.5731 15.105 21.5129 15.3502 21.3447 15.5135L19.1156 17.6863L19.6432 20.7554C19.6829 20.9874 19.5879 21.2205 19.398 21.3575C19.2907 21.4357 19.1635 21.4754 19.036 21.4754ZM12.3939 15.5015L13.9628 17.0301C14.1074 17.172 14.1736 17.375 14.1393 17.5756L13.7685 19.7352L15.7076 18.7148C15.8865 18.6211 16.1017 18.6211 16.2808 18.7148L18.2186 19.734L17.8473 17.5756C17.8137 17.375 17.8797 17.172 18.0252 17.0301L19.5933 15.5015L17.4254 15.1866C17.226 15.1566 17.0522 15.0316 16.9626 14.8502L15.9941 12.8865L15.0242 14.8502C14.9347 15.0316 14.7617 15.1566 14.5616 15.1866L12.3939 15.5015Z" fill="#43B8D2"/>
</svg>
