<svg width="16" height="16" viewBox="0 0 16 16" fill="none" xmlns="http://www.w3.org/2000/svg">
<path fill-rule="evenodd" clip-rule="evenodd" d="M8.43473 7.82006L10.0478 9.43311C10.2177 9.60281 10.2177 9.87869 10.0478 10.0484C9.87807 10.2183 9.6022 10.2183 9.43249 10.0484L7.69195 8.30785C7.61036 8.22626 7.56445 8.11552 7.56445 8.00021V4.51912C7.56445 4.27893 7.75939 4.08398 7.99959 4.08398C8.23978 4.08398 8.43473 4.27893 8.43473 4.51912V7.82006Z" fill="#EB5FE2"/>
<path fill-rule="evenodd" clip-rule="evenodd" d="M11.3845 11.3845C9.51659 13.2524 6.48341 13.2524 4.6155 11.3845C2.74759 9.5166 2.74759 6.48341 4.6155 4.6155C6.48341 2.74759 9.51659 2.74759 11.3845 4.6155C12.857 6.08797 13.169 8.28449 12.3199 10.0636C12.2164 10.2805 12.3085 10.5403 12.525 10.6438C12.7418 10.7472 13.0019 10.6551 13.1053 10.4384C14.1085 8.33599 13.7402 5.74016 12 4C9.7924 1.79241 6.2076 1.7924 4 4C1.7924 6.2076 1.7924 9.7924 4 12C6.2076 14.2076 9.7924 14.2076 12 12C12.1698 11.8302 12.1698 11.5543 12 11.3845C11.8302 11.2147 11.5543 11.2147 11.3845 11.3845Z" fill="#EB5FE2"/>
</svg>
