<svg width="17" height="18" viewBox="0 0 17 18" fill="none" xmlns="http://www.w3.org/2000/svg">
<path d="M3.18183 15.4453H3C1.89543 15.4453 1 14.5499 1 13.4453V3C1 1.89543 1.89543 1 3 1H12.2064C13.3109 1 14.2064 1.89543 14.2064 3V3.30304" stroke="#8C8C8C" stroke-width="0.8"/>
<path d="M14.2726 3.22235H5.08423C3.97966 3.22235 3.08423 4.11778 3.08423 5.22235V14.9999C3.08423 16.1044 3.97966 16.9999 5.08423 16.9999H14.2727C15.3772 16.9999 16.2727 16.1044 16.2727 14.9999V5.22235C16.2727 4.11778 15.3772 3.22235 14.2726 3.22235Z" stroke="#8C8C8C" stroke-width="0.8"/>
<path d="M6.21366 10.4762C5.48478 11.2051 5.48477 12.3925 6.21364 13.1213C6.94252 13.8502 8.12986 13.8502 8.85875 13.1213L10.3283 11.6518C11.0571 10.9229 11.0572 9.73559 10.3283 9.0067C10.2995 8.97709 10.2651 8.95351 10.2271 8.93731C10.1891 8.92111 10.1483 8.91262 10.107 8.91234C10.0657 8.91206 10.0247 8.91998 9.98651 8.93566C9.9483 8.95133 9.91358 8.97444 9.88438 9.00365C9.85517 9.03285 9.83206 9.06757 9.81639 9.10578C9.80071 9.14399 9.79279 9.18494 9.79307 9.22624C9.79336 9.26754 9.80184 9.30837 9.81804 9.34637C9.83424 9.38436 9.85783 9.41876 9.88743 9.44756C10.3797 9.93983 10.3797 10.7187 9.88742 11.211L8.4179 12.6805C7.92562 13.1728 7.14677 13.1728 6.6545 12.6805C6.16222 12.1882 6.16223 11.4094 6.65451 10.9171L8.05055 9.52104C8.08019 9.49225 8.10381 9.45785 8.12004 9.41985C8.13626 9.38185 8.14477 9.341 8.14507 9.29968C8.14537 9.25836 8.13746 9.21739 8.12178 9.17916C8.10611 9.14093 8.08299 9.10619 8.05377 9.07698C8.02455 9.04776 7.98982 9.02464 7.95158 9.00896C7.91335 8.99329 7.87238 8.98537 7.83106 8.98567C7.78974 8.98597 7.7489 8.99449 7.71089 9.01071C7.67289 9.02694 7.6385 9.05056 7.6097 9.0802L6.21366 10.4762V10.4762ZM9.00574 7.68415C8.27686 8.41304 8.27685 9.60039 9.00572 10.3293C9.03452 10.3589 9.06892 10.3824 9.10691 10.3986C9.1449 10.4148 9.18573 10.4233 9.22703 10.4236C9.26833 10.4239 9.30927 10.4159 9.34747 10.4003C9.38568 10.3846 9.4204 10.3615 9.4496 10.3323C9.4788 10.3031 9.50191 10.2684 9.51758 10.2302C9.53326 10.192 9.54118 10.151 9.5409 10.1097C9.54062 10.0684 9.53214 10.0276 9.51595 9.98959C9.49975 9.9516 9.47617 9.91721 9.44658 9.88841C8.9543 9.39614 8.95431 8.61729 9.44659 8.12501L10.9161 6.65549C11.4084 6.16321 12.1872 6.1632 12.6795 6.65548C13.1718 7.14775 13.1718 7.9266 12.6795 8.41888L11.2835 9.81491C11.2539 9.84371 11.2303 9.87811 11.2141 9.9161C11.1979 9.95409 11.1894 9.99493 11.1891 10.0362C11.1888 10.0775 11.1967 10.1185 11.2124 10.1567C11.2281 10.1949 11.2512 10.2296 11.2804 10.2588C11.3096 10.288 11.3443 10.3111 11.3825 10.3268C11.4207 10.3425 11.4617 10.3504 11.503 10.3501C11.5443 10.3498 11.5851 10.3413 11.6231 10.3251C11.6611 10.3089 11.6955 10.2854 11.7243 10.2558L13.1203 8.85972C13.8492 8.13084 13.8492 6.9435 13.1204 6.21462C12.3915 5.48574 11.2041 5.48575 10.4753 6.21464L9.00574 7.68415V7.68415Z" fill="#8C8C8C"/>
</svg>
