<svg width="15" height="16" viewBox="0 0 15 16" fill="none" xmlns="http://www.w3.org/2000/svg">
<path d="M7.78002 10.1743C8.98072 10.1743 9.95408 9.20094 9.95408 8.00023C9.95408 6.79953 8.98072 5.82617 7.78002 5.82617C6.57932 5.82617 5.60596 6.79953 5.60596 8.00023C5.60596 9.20094 6.57932 10.1743 7.78002 10.1743Z" fill="#EB5FE2"/>
<path d="M14.1928 10.3354C14.184 10.3095 14.1679 10.2867 14.1465 10.2697C14.1251 10.2527 14.0992 10.2423 14.072 10.2396C14.0448 10.2369 14.0174 10.2421 13.9931 10.2546C13.9688 10.2671 13.9486 10.2863 13.9349 10.31L13.705 10.7073L11.6472 9.51876C12.0322 8.54258 12.0322 7.45659 11.647 6.48045L13.705 5.2927L13.9349 5.69006C13.9486 5.71371 13.9688 5.73293 13.9931 5.7454C14.0174 5.75788 14.0448 5.76309 14.072 5.7604C14.0992 5.75772 14.1251 5.74726 14.1465 5.73027C14.1679 5.71329 14.184 5.69049 14.1928 5.66462L14.7193 4.11664C14.7258 4.09745 14.7282 4.07709 14.7262 4.05692C14.7242 4.03675 14.7179 4.01723 14.7078 3.99968C14.6977 3.98212 14.6839 3.96694 14.6674 3.95514C14.6509 3.94334 14.6321 3.93519 14.6122 3.93125L13.0087 3.61341C12.9819 3.60809 12.9541 3.61061 12.9287 3.62066C12.9033 3.6307 12.8813 3.64786 12.8654 3.67006C12.8494 3.69227 12.8403 3.71859 12.8389 3.74589C12.8375 3.77318 12.8441 3.80029 12.8577 3.82397L13.087 4.22237L11.0278 5.41126C10.3745 4.59048 9.43508 4.04706 8.3979 3.89003V1.51445H8.85667C8.884 1.51445 8.91077 1.50658 8.93375 1.49177C8.95673 1.47696 8.97496 1.45584 8.98625 1.43094C8.99754 1.40605 9.00142 1.37842 8.99743 1.35138C8.99344 1.32433 8.98174 1.29901 8.96373 1.27844L7.88699 0.0485622C7.87364 0.0333076 7.85718 0.0210833 7.83871 0.012708C7.82025 0.00433276 7.80021 0 7.77993 0C7.75966 0 7.73962 0.00433276 7.72115 0.012708C7.70269 0.0210833 7.68623 0.0333076 7.67287 0.0485622L6.59614 1.27844C6.57813 1.29901 6.56643 1.32433 6.56243 1.35138C6.55844 1.37842 6.56232 1.40605 6.57362 1.43094C6.58491 1.45584 6.60314 1.47696 6.62612 1.49177C6.6491 1.50658 6.67586 1.51445 6.7032 1.51445H7.16197V3.89003C6.12478 4.04706 5.18534 4.59048 4.5321 5.41126L2.47284 4.22237L2.70218 3.82396C2.71581 3.80028 2.72234 3.77317 2.72098 3.74588C2.71961 3.71859 2.71042 3.69226 2.6945 3.67006C2.67857 3.64785 2.65659 3.6307 2.63118 3.62065C2.60577 3.6106 2.578 3.60808 2.5512 3.6134L0.94763 3.93124C0.927748 3.93519 0.908937 3.94333 0.892457 3.95513C0.875977 3.96693 0.862208 3.98212 0.852073 3.99967C0.841938 4.01722 0.83567 4.03674 0.833689 4.05691C0.831708 4.07708 0.83406 4.09745 0.840587 4.11663L1.3671 5.66461C1.3759 5.69049 1.39197 5.71328 1.41338 5.73027C1.43479 5.74725 1.46064 5.75771 1.48784 5.7604C1.51504 5.76308 1.54244 5.75787 1.56676 5.7454C1.59108 5.73292 1.61129 5.71371 1.62498 5.69005L1.85487 5.2927L3.91284 6.48045C3.52769 7.45659 3.52762 8.54258 3.91265 9.51876L1.85487 10.7073L1.62498 10.31C1.61129 10.2863 1.59108 10.2671 1.56676 10.2546C1.54244 10.2421 1.51504 10.2369 1.48784 10.2396C1.46064 10.2423 1.43479 10.2527 1.41338 10.2697C1.39197 10.2867 1.3759 10.3095 1.3671 10.3354L0.840611 11.8833C0.834082 11.9025 0.831731 11.9228 0.833716 11.943C0.835701 11.9632 0.841976 11.9827 0.85212 12.0003C0.862265 12.0178 0.876044 12.033 0.892536 12.0448C0.909027 12.0566 0.927849 12.0648 0.947741 12.0687L2.55107 12.3855C2.57788 12.3908 2.60565 12.3883 2.63106 12.3782C2.65647 12.3682 2.67844 12.351 2.69435 12.3288C2.71026 12.3066 2.71943 12.2802 2.72078 12.2529C2.72212 12.2256 2.71557 12.1985 2.70192 12.1748L2.47284 11.7776L4.53228 10.5886C5.18551 11.4093 6.12488 11.9526 7.16197 12.1097V14.4856H6.7032C6.67586 14.4856 6.6491 14.4934 6.62612 14.5082C6.60314 14.5231 6.58491 14.5442 6.57362 14.5691C6.56232 14.594 6.55844 14.6216 6.56243 14.6486C6.56643 14.6757 6.57813 14.701 6.59614 14.7216L7.67287 15.9514C7.68623 15.9667 7.70269 15.9789 7.72115 15.9873C7.73962 15.9957 7.75966 16 7.77993 16C7.80021 16 7.82025 15.9957 7.83871 15.9873C7.85717 15.9789 7.87364 15.9667 7.88699 15.9514L8.96373 14.7216C8.98174 14.701 8.99344 14.6757 8.99743 14.6486C9.00142 14.6216 8.99754 14.594 8.98625 14.5691C8.97496 14.5442 8.95673 14.5231 8.93375 14.5082C8.91077 14.4934 8.88401 14.4856 8.85667 14.4856H8.3979V12.1097C9.43498 11.9526 10.3744 11.4093 11.0276 10.5886L13.087 11.7776L12.8579 12.1748C12.8443 12.1985 12.8377 12.2256 12.8391 12.2529C12.8404 12.2802 12.8496 12.3066 12.8655 12.3288C12.8814 12.351 12.9034 12.3682 12.9288 12.3782C12.9542 12.3883 12.982 12.3908 13.0088 12.3855L14.6121 12.0687C14.632 12.0648 14.6508 12.0566 14.6673 12.0448C14.6838 12.033 14.6976 12.0178 14.7077 12.0003C14.7179 11.9827 14.7242 11.9632 14.7261 11.943C14.7281 11.9228 14.7258 11.9025 14.7193 11.8833L14.1928 10.3354ZM7.77993 11.2021C7.14658 11.2021 6.52745 11.0143 6.00084 10.6624C5.47422 10.3106 5.06378 9.81044 4.82141 9.2253C4.57903 8.64016 4.51562 7.99628 4.63918 7.3751C4.76274 6.75392 5.06773 6.18332 5.51558 5.73548C5.96343 5.28763 6.53402 4.98264 7.15521 4.85908C7.77639 4.73552 8.42026 4.79894 9.0054 5.04131C9.59054 5.28369 10.0907 5.69413 10.4425 6.22075C10.7944 6.74736 10.9822 7.36649 10.9822 7.99984C10.9813 8.84885 10.6436 9.6628 10.0432 10.2631C9.44289 10.8635 8.62894 11.2012 7.77993 11.2021Z" fill="#EB5FE2"/>
</svg>
