<svg width="64" height="64" viewBox="0 0 64 64" fill="none" xmlns="http://www.w3.org/2000/svg">
<path fill-rule="evenodd" clip-rule="evenodd" d="M32 60C47.464 60 60 47.464 60 32C60 16.536 47.464 4 32 4C16.536 4 4 16.536 4 32C4 47.464 16.536 60 32 60ZM32 64C49.6731 64 64 49.6731 64 32C64 14.3269 49.6731 0 32 0C14.3269 0 0 14.3269 0 32C0 49.6731 14.3269 64 32 64Z" fill="url(#paint0_linear)"/>
<path d="M30.014 26.6401H35.014V48.0001H30.014V26.6401ZM32.534 23.1201C31.6273 23.1201 30.8673 22.8401 30.254 22.2801C29.6407 21.6935 29.334 20.9735 29.334 20.1201C29.334 19.2668 29.6407 18.5601 30.254 18.0001C30.8673 17.4135 31.6273 17.1201 32.534 17.1201C33.4407 17.1201 34.2007 17.4001 34.814 17.9601C35.4273 18.4935 35.734 19.1735 35.734 20.0001C35.734 20.8801 35.4273 21.6268 34.814 22.2401C34.2273 22.8268 33.4673 23.1201 32.534 23.1201Z" fill="#57A7F2"/>
<defs>
<linearGradient id="paint0_linear" x1="-4.84288e-08" y1="32" x2="64" y2="32" gradientUnits="userSpaceOnUse">
<stop stop-color="#F04ADC"/>
<stop offset="1" stop-color="#00DBFF"/>
</linearGradient>
</defs>
</svg>
