<svg width="17" height="16" viewBox="0 0 17 16" fill="none" xmlns="http://www.w3.org/2000/svg">
<path fill-rule="evenodd" clip-rule="evenodd" d="M8.25247 15C12.2405 15 15.4734 11.866 15.4734 8C15.4734 4.13401 12.2405 1 8.25247 1C4.26447 1 1.03156 4.13401 1.03156 8C1.03156 11.866 4.26447 15 8.25247 15ZM8.25247 16C12.8102 16 16.5049 12.4183 16.5049 8C16.5049 3.58172 12.8102 0 8.25247 0C3.69475 0 0 3.58172 0 8C0 12.4183 3.69475 16 8.25247 16Z" fill="#F9F9F9"/>
<path d="M7.74006 6.65995H9.02951V11.9999H7.74006V6.65995ZM8.38994 5.77995C8.15612 5.77995 7.96013 5.70995 7.80196 5.56995C7.64378 5.42328 7.5647 5.24328 7.5647 5.02995C7.5647 4.81661 7.64378 4.63995 7.80196 4.49995C7.96013 4.35328 8.15612 4.27995 8.38994 4.27995C8.62376 4.27995 8.81976 4.34995 8.97793 4.48995C9.1361 4.62328 9.21519 4.79328 9.21519 4.99995C9.21519 5.21995 9.1361 5.40661 8.97793 5.55995C8.82664 5.70661 8.63064 5.77995 8.38994 5.77995Z" fill="#F9F9F9"/>
</svg>
