<svg width="70" height="64" viewBox="0 0 70 64" fill="none" xmlns="http://www.w3.org/2000/svg">
<path d="M51.8416 0H45.6074V2.03075H51.8416V0Z" fill="url(#paint0_linear_4163_2705)"/>
<path d="M0 4.35635C0.0482848 4.28515 0.0880917 4.20855 0.118611 4.12811C0.808707 1.49353 2.71006 0.0180911 5.46146 0.0180911C18.4679 0.0180911 31.4742 0.0180911 44.4806 0.0180911C44.8616 0.0180911 45.2444 0.00730832 45.6254 0.0180911C46.2544 0.0450479 46.6264 0.388298 46.657 0.943609C46.6893 1.52767 46.3209 1.9482 45.6901 2.02188C45.4437 2.03958 45.1965 2.04378 44.9497 2.03447H5.52616C3.54932 2.03447 2.17452 3.18642 2.04153 4.9476C1.99481 5.573 2.02536 6.20559 2.02536 6.83458C2.02536 8.24892 2.03794 9.66506 2.02536 11.0794C2.02536 11.4837 2.12959 11.6724 2.55192 11.6185C2.68595 11.6095 2.82044 11.6095 2.95447 11.6185C20.2308 11.6185 37.5054 11.6185 54.7782 11.6185C55.8187 11.6185 55.6875 11.7533 55.6911 10.6732C55.6911 8.89948 55.7037 7.12392 55.6911 5.35016C55.6767 3.37333 54.3756 2.0776 52.3916 2.04345C51.786 2.03447 51.1785 2.05423 50.5729 2.04345C49.8451 2.02548 49.3832 1.62472 49.376 1.03347C49.3688 0.442211 49.8271 0.0198885 50.5549 0.0324684C51.6332 0.0522368 52.7115 -0.0879384 53.7754 0.176239C54.8775 0.439183 55.8611 1.06065 56.5718 1.9431C57.2825 2.82554 57.6801 3.919 57.7021 5.05184C57.7416 8.17344 57.7255 11.2968 57.7111 14.4185C57.7111 14.8605 57.7632 15.1085 58.2915 15.1517C58.9133 15.2002 59.2548 15.6621 59.4759 16.2174C59.5549 16.4151 59.6016 16.6361 59.9161 16.6379C60.2306 16.6397 60.3097 16.4276 60.4122 16.1976C60.8632 15.193 61.6396 14.8749 62.6586 15.2685C63.2229 15.4877 63.7854 15.7142 64.3407 15.955C65.2392 16.3468 65.5663 17.1141 65.2518 18.0504C65.1727 18.2895 64.9733 18.5159 65.2392 18.7873C65.5052 19.0586 65.7316 18.8681 65.9725 18.7873C66.9663 18.4512 67.6743 18.7531 68.1092 19.72C68.3572 20.2717 68.5945 20.8306 68.8155 21.3931C69.2055 22.3815 68.9233 23.095 67.9816 23.5604C67.7534 23.6719 67.4551 23.6952 67.4587 24.078C67.4623 24.4608 67.7606 24.477 67.9978 24.5848C68.9197 25.0269 69.2271 25.7385 68.873 26.6856C68.6538 27.2733 68.4112 27.852 68.1649 28.4288C67.7642 29.3615 66.986 29.6994 66.0228 29.3759C65.7856 29.2968 65.5681 29.0974 65.2949 29.3759C65.0218 29.6545 65.2338 29.8701 65.3129 30.1056C65.6328 31.0598 65.3345 31.8146 64.4377 32.2262C63.8465 32.4957 63.2444 32.7419 62.6406 32.9738C61.7025 33.3332 60.9764 33.0205 60.5379 32.1076C60.4265 31.8793 60.4068 31.59 60.0204 31.5936C59.634 31.5972 59.6178 31.8973 59.519 32.1327C59.2638 32.7222 58.8325 33.0852 58.1927 33.1211C57.8009 33.1445 57.6823 33.3008 57.729 33.6603C57.7389 33.727 57.7389 33.7948 57.729 33.8615C57.5493 34.9542 57.9483 35.7521 58.784 36.4925C60.0132 37.5816 60.0258 38.7659 58.7983 39.8262C57.9177 40.5864 57.7201 41.2298 58.279 42.2937C58.6096 42.9316 58.8774 43.2138 59.5909 43.1491C61.8319 42.9406 62.7017 43.8679 62.5651 46.0874C62.504 47.0938 62.5651 48.1073 62.5525 49.1191C62.5382 50.3969 61.7151 51.3548 60.4517 51.22C59.014 51.0654 58.2772 51.5578 57.9357 52.929C57.8351 53.3352 57.8045 53.5634 58.1154 53.842C58.4861 54.1687 58.8333 54.5212 59.1542 54.8969C59.8263 55.6804 59.873 56.7264 59.1775 57.4776C58.1735 58.5642 57.1264 59.6119 56.0362 60.6207C55.2544 61.3396 54.2193 61.2857 53.407 60.5866C53.3696 60.5619 53.3362 60.5316 53.3081 60.4967C52.4796 59.1201 51.3996 59.2172 50.1811 59.927C49.9223 60.078 49.7552 60.1822 49.7714 60.5129C49.7984 61.0517 49.7984 61.5915 49.7714 62.1303C49.7593 62.6201 49.5578 63.086 49.2092 63.4302C48.8607 63.7744 48.3922 63.9701 47.9024 63.976C46.4647 64.0083 45.027 64.0083 43.5893 63.976C43.1003 63.9674 42.6325 63.7749 42.2791 63.4369C41.9257 63.0988 41.7127 62.64 41.6825 62.1519C41.6825 62.0854 41.6825 62.0171 41.6825 61.9506C41.6196 61.318 41.9521 60.5399 41.519 60.0834C41.1236 59.6683 40.3886 59.5856 39.8207 59.3214C39.7269 59.2624 39.6142 59.2413 39.5054 59.2624C39.3966 59.2834 39.2999 59.345 39.2348 59.4346C38.8754 59.8084 38.516 60.1804 38.1386 60.5309C37.2706 61.3306 36.151 61.3324 35.2991 60.5075C34.3311 59.5706 33.3786 58.6175 32.4417 57.6483C31.5827 56.7587 31.5953 55.6715 32.4417 54.7729C32.7508 54.4458 33.0833 54.1421 33.3888 53.815C33.5308 53.6641 33.7913 53.5598 33.6763 53.2759C33.5613 52.9919 33.2702 53.0692 33.0401 53.0512C32.9054 53.0512 32.7706 53.0512 32.6358 53.0512H14.4111C14.2314 53.0512 14.0517 53.0512 13.872 53.0512C13.1532 53.0279 12.6895 52.6307 12.6895 52.0323C12.6895 51.4338 13.1478 51.0295 13.8738 51.0277C16.9744 51.0205 20.0745 51.0205 23.1739 51.0277H29.8233C28.5653 50.0015 28.9445 48.6914 28.9014 47.4766C28.8744 46.7128 28.8744 45.9472 28.9014 45.1852C28.9499 43.9524 29.7478 43.0664 30.9609 43.1976C32.3788 43.3522 33.148 42.8993 33.4894 41.5137C33.5937 41.0968 33.6799 40.8434 33.3187 40.5397C32.9433 40.2182 32.5941 39.8672 32.2746 39.4901C31.9443 39.1285 31.7642 38.6546 31.7709 38.1648C31.7776 37.6751 31.9705 37.2063 32.3105 36.8538C33.3025 35.8138 34.3209 34.7955 35.3656 33.7986C36.1024 33.0996 37.1538 33.0996 37.9535 33.7268C38.03 33.7745 38.0975 33.8354 38.153 33.9065C38.9904 35.2795 40.0705 35.1645 41.2871 34.4636C41.5352 34.3198 41.6681 34.2156 41.6574 33.9244C41.6394 33.4087 41.6376 32.8911 41.6574 32.3753C41.7041 31.2413 42.511 30.4254 43.6342 30.4093C45.0276 30.3877 46.4203 30.3877 47.8125 30.4093C48.9141 30.4272 49.7031 31.227 49.7534 32.3286C49.7714 32.733 49.7534 33.1373 49.7534 33.5417C49.7615 33.6763 49.7615 33.8113 49.7534 33.946C49.7389 34.0069 49.7387 34.0704 49.7529 34.1314C49.767 34.1924 49.7952 34.2492 49.8351 34.2975C49.875 34.3458 49.9255 34.3841 49.9828 34.4095C50.04 34.4349 50.1024 34.4466 50.1649 34.4438C50.8838 34.4905 51.4121 35.4664 52.2227 34.9344C52.6468 34.6559 52.9577 34.2156 53.3315 33.8562C53.5551 33.6331 53.8283 33.4659 54.1286 33.3682C54.429 33.2704 54.7482 33.2449 55.0603 33.2937C55.2562 33.3206 55.5689 33.5812 55.63 33.3098C55.7037 32.9828 55.8906 32.5011 55.4844 32.2639C54.523 31.7032 54.3576 30.9376 54.7764 29.9744C54.8248 29.8992 54.846 29.8097 54.8365 29.7208C54.827 29.6318 54.7874 29.5488 54.7243 29.4855C54.6591 29.4105 54.5717 29.3581 54.4747 29.3362C54.3777 29.3142 54.2763 29.3237 54.1851 29.3633C52.7025 29.7839 52.255 29.561 51.6548 28.1287C51.4553 27.6525 51.2396 27.1816 51.0743 26.691C50.7832 25.8266 51.0743 25.1491 51.8812 24.7142C52.1166 24.5884 52.4671 24.5938 52.4725 24.175C52.4779 23.7563 52.1418 23.7545 51.8974 23.6359C51.0923 23.2459 50.7526 22.4588 51.0617 21.6123C51.2917 20.9816 51.5451 20.3544 51.8165 19.7415C52.2191 18.8268 52.9613 18.5249 53.912 18.8538C54.151 18.9346 54.363 19.1395 54.6416 18.8735C54.9201 18.6076 54.7278 18.3883 54.6416 18.1547C54.3055 17.2292 54.496 16.6091 55.3604 16.1113C55.6965 15.9173 55.6749 15.6728 55.6767 15.3925C55.6929 13.6762 55.6929 13.6762 53.9856 13.6762C36.9597 13.6762 19.9325 13.6762 2.90415 13.6762C1.86362 13.6762 2.01817 13.5558 2.01817 14.5748C2.01817 25.5145 2.01817 36.4542 2.01817 47.3939C2.01817 49.7535 3.27616 51.0259 5.6232 51.0277C6.67812 51.0277 7.73483 51.0277 8.78974 51.0277C9.57688 51.0277 10.0226 51.4141 10.0136 52.0503C10.0136 52.6577 9.5625 53.0441 8.82748 53.0512C7.59106 53.0512 6.35643 53.0728 5.12001 53.0512C3.95932 53.0255 2.84022 52.6141 1.93919 51.882C1.03817 51.1498 0.406491 50.1386 0.143771 49.0077C0.106031 48.8568 0.0485224 48.713 0 48.5656V4.35635ZM45.7368 32.3915C45.2211 32.3915 44.7017 32.4203 44.1877 32.3915C43.751 32.3592 43.6486 32.5371 43.6719 32.9306C43.7007 33.5812 43.6719 34.2336 43.6827 34.8841C43.6935 35.5347 43.415 35.8995 42.8075 36.0648C41.7898 36.3432 40.8116 36.7496 39.8962 37.2743C39.3804 37.5708 38.9096 37.4989 38.4908 37.0766C38.0002 36.5824 37.4916 36.1044 37.0172 35.5958C36.7764 35.337 36.6182 35.3388 36.372 35.5958C35.6244 36.3721 34.8624 37.1347 34.0861 37.8835C33.8722 38.0902 33.8794 38.2196 34.0861 38.4226C34.5875 38.9043 35.0637 39.4129 35.5669 39.8963C36.0377 40.3492 36.1294 40.8416 35.7969 41.4095C35.2752 42.301 34.8785 43.2601 34.618 44.2597C34.4617 44.86 34.0663 45.1583 33.4409 45.1583C32.767 45.1583 32.0931 45.1673 31.4191 45.1583C31.0957 45.1583 30.9177 45.2356 30.9231 45.6058C30.9375 46.6613 30.9375 47.7168 30.9231 48.7723C30.9231 49.1317 31.0579 49.2431 31.403 49.2341C32.0751 49.2162 32.749 49.2341 33.4229 49.2341C34.0537 49.218 34.4545 49.4983 34.6126 50.1022C34.8833 51.1219 35.2888 52.101 35.8185 53.0135C35.9655 53.2304 36.027 53.4939 35.9911 53.7534C35.9553 54.0129 35.8246 54.25 35.6244 54.4189C35.114 54.9257 34.6144 55.4414 34.0951 55.9392C33.9028 56.1189 33.8453 56.2501 34.0735 56.4784C34.8642 57.2439 35.643 58.0227 36.4098 58.8146C36.6362 59.05 36.7854 59.0429 37.0046 58.8146C37.4826 58.3096 37.9912 57.8316 38.4746 57.332C38.9149 56.8755 39.4002 56.8198 39.9357 57.1289C40.829 57.6462 41.7868 58.0433 42.7842 58.3096C43.4221 58.4804 43.7061 58.8811 43.6827 59.5407C43.6594 60.2002 43.6827 60.8885 43.6737 61.5606C43.6737 61.8823 43.7798 61.9973 44.0997 61.9937C45.1546 61.9812 46.2113 61.9722 47.2662 61.9937C47.6759 61.9937 47.7514 61.8266 47.7406 61.4726C47.7209 60.7987 47.7316 60.1247 47.7406 59.4508C47.7406 58.8614 48.0264 58.4732 48.605 58.3222C49.6046 58.0615 50.5641 57.6661 51.4571 57.1469C52.0465 56.8036 52.5569 56.8827 53.0278 57.3823C53.4573 57.8406 53.9263 58.2611 54.354 58.723C54.6164 59.0069 54.7943 59.0824 55.1016 58.7517C55.8061 57.9969 56.5393 57.2691 57.2941 56.561C57.5943 56.2771 57.5242 56.1153 57.2636 55.8727C56.7712 55.4145 56.3093 54.9221 55.8259 54.4494C55.4072 54.0361 55.2868 53.576 55.5995 53.0512C56.1408 52.1192 56.5565 51.1198 56.8359 50.0788C56.9958 49.4911 57.384 49.2413 57.977 49.2485C58.651 49.2485 59.3249 49.2342 59.9988 49.2485C60.3582 49.2593 60.5236 49.1677 60.5146 48.7651C60.4918 47.7324 60.4918 46.699 60.5146 45.6651C60.5236 45.2715 60.3762 45.1601 60.0078 45.1709C59.3339 45.1888 58.66 45.1709 57.986 45.1709C57.366 45.1709 56.9761 44.8851 56.8143 44.2723C56.5559 43.2723 56.1584 42.3134 55.6336 41.4238C55.2921 40.8452 55.3982 40.3653 55.869 39.9161C56.3399 39.4668 56.7802 38.9869 57.2564 38.5413C57.5134 38.3022 57.5943 38.1387 57.2906 37.853C56.5214 37.1341 55.7792 36.3775 55.0495 35.6155C54.7943 35.3496 54.638 35.3783 54.4044 35.6281C53.9605 36.1044 53.4735 36.5411 53.0296 37.0173C52.5372 37.5564 52.0088 37.5978 51.4032 37.2347C50.5528 36.7295 49.634 36.3493 48.6751 36.1062C47.994 35.9264 47.7227 35.5023 47.7316 34.832C47.7406 34.1617 47.7191 33.5291 47.7316 32.8785C47.7424 32.5335 47.6364 32.3969 47.277 32.4149C46.772 32.4059 46.2544 32.3879 45.7368 32.3861V32.3915ZM57.0929 18.8232C57.0933 19.0033 57.0538 19.1813 56.9774 19.3444C56.901 19.5075 56.7894 19.6517 56.6508 19.7667C56.3066 20.0543 55.9879 20.3712 55.6983 20.7138C55.2508 21.2853 54.7279 21.4039 54.1007 21.084C53.7035 20.8809 53.4986 20.9276 53.3027 21.3877C53.1068 21.8478 53.2901 21.9933 53.6765 22.1479C54.4727 22.4678 54.62 22.7481 54.5409 23.5946C54.499 23.8155 54.4899 24.0414 54.514 24.2649C54.7135 25.2336 54.4996 25.9434 53.4357 26.2417C52.999 26.3621 53.256 26.6641 53.3566 26.8869C53.4573 27.1098 53.4753 27.5015 53.8742 27.2715C54.7836 26.7449 55.4431 27.0415 55.9894 27.8412C56.0942 27.9879 56.2252 28.114 56.3758 28.2132C57.1288 28.7182 57.3606 29.3508 56.8772 30.1649C56.6148 30.6088 56.9994 30.6447 57.2456 30.7471C57.4918 30.8496 57.7973 31.0976 57.9213 30.6087C58.155 29.694 58.7444 29.3921 59.6412 29.5574C59.887 29.588 60.1357 29.588 60.3816 29.5574C61.5228 29.4891 61.5641 29.4891 62.0493 30.5656C62.2147 30.925 62.4088 30.925 62.6568 30.7561C62.8724 30.6177 63.4026 30.6681 63.1114 30.1595C62.6262 29.313 62.8562 28.6732 63.6254 28.1485C63.8023 28.0096 63.9616 27.8497 64.0999 27.6722C64.8726 26.8024 64.8996 26.7737 65.994 27.1888C66.3534 27.3272 66.4936 27.2176 66.5709 26.9085C66.6374 26.6461 67.0004 26.3082 66.4613 26.1573C65.4747 25.8841 65.2356 25.2174 65.4082 24.2973C65.4386 24.1185 65.4356 23.9357 65.3992 23.7581C65.2284 22.8739 65.5052 22.2611 66.4164 22.0095C66.8674 21.8837 66.7111 21.6034 66.5835 21.3338C66.4559 21.0642 66.4397 20.6994 66.0084 20.9546C65.1602 21.456 64.5222 21.199 63.9992 20.4352C63.8831 20.2688 63.7376 20.1251 63.5697 20.0111C62.8239 19.5097 62.5633 18.8879 63.0485 18.0648C63.2929 17.6497 62.9677 17.5634 62.6891 17.4682C62.4429 17.3801 62.132 17.1087 62.008 17.603C61.7636 18.5662 61.1094 18.807 60.2109 18.6579C59.9891 18.6192 59.7623 18.6192 59.5406 18.6579C58.6671 18.825 58.1028 18.5069 57.8495 17.6443C57.8045 17.4879 57.7758 17.2974 57.5008 17.3388C56.8682 17.434 56.6849 17.7216 56.9096 18.3146C56.9958 18.4961 57.0587 18.6902 57.0929 18.8178V18.8232Z" fill="url(#paint1_linear_4163_2705)"/>
<path d="M24.5227 16.9906C24.4813 17.1146 24.413 17.35 24.3232 17.5765C22.5464 22.0513 20.7679 26.525 18.9875 30.9974C18.9462 31.1016 18.9067 31.2077 18.8599 31.3083C18.5778 31.9139 18.0404 32.1566 17.4923 31.9265C16.9855 31.7145 16.7519 31.1645 16.9819 30.5733C17.7295 28.654 18.4987 26.7418 19.2607 24.8225C20.339 22.1178 21.4172 19.4149 22.4829 16.7067C22.6626 16.234 22.9286 15.871 23.466 15.8189C24.0464 15.7686 24.5442 16.2718 24.5227 16.9906Z" fill="#997FE9"/>
<path d="M12.9389 19.6826C12.9146 19.8844 12.7996 20.0778 12.6072 20.2404C11.5844 21.2994 10.58 22.3665 9.5333 23.4175C9.41851 23.5121 9.35636 23.6277 9.35636 23.7466C9.35636 23.8655 9.41851 23.9811 9.5333 24.0757C10.6151 25.2144 11.6618 26.3658 12.7233 27.5115C12.9739 27.7817 13.0403 28.0531 12.7233 28.3199C12.6143 28.4139 12.4652 28.4868 12.293 28.5301C12.1209 28.5734 11.9328 28.5854 11.7503 28.5647C11.5783 28.55 11.4149 28.5087 11.2746 28.4446C11.1344 28.3805 11.0217 28.2956 10.9468 28.1975L7.191 24.1231C7.07181 24.0072 7.00842 23.8723 7.00842 23.7345C7.00842 23.5966 7.07181 23.4617 7.191 23.3459C8.46074 22.0258 9.72496 20.7035 11.0021 19.3881C11.2638 19.1179 11.6618 18.9862 12.1778 19.0798C12.393 19.1136 12.5843 19.1911 12.7219 19.3001C12.8596 19.4091 12.9359 19.5436 12.9389 19.6826Z" fill="#C862E2"/>
<path d="M29.214 19.0499C29.3935 19.0555 29.5679 19.0901 29.7213 19.1506C29.8746 19.2111 30.002 19.2954 30.0917 19.396C31.3251 20.7134 32.5567 22.0317 33.7866 23.3507C33.9034 23.4657 33.9656 23.6002 33.9656 23.7377C33.9656 23.8752 33.9034 24.0098 33.7866 24.1248C32.5675 25.4803 31.3573 26.8405 30.1292 28.1925C29.7878 28.5686 29.2175 28.6702 28.7099 28.4833C28.2022 28.2964 28.061 27.9249 28.3988 27.543C29.4249 26.3813 30.4581 25.2207 31.5182 24.0717C31.6295 23.9767 31.6898 23.8609 31.6898 23.7418C31.6898 23.6227 31.6295 23.5068 31.5182 23.4118C30.4706 22.3239 29.4517 21.2268 28.4399 20.1251C27.9555 19.6059 28.3827 19.0429 29.214 19.0499Z" fill="#7992ED"/>
<path d="M9.97412 6.80737C9.97412 7.3064 9.77588 7.78499 9.42301 8.13786C9.07015 8.49072 8.59156 8.68896 8.09253 8.68896C7.5935 8.68896 7.11491 8.49072 6.76204 8.13786C6.40918 7.78499 6.21094 7.3064 6.21094 6.80737C6.21094 6.30834 6.40918 5.82975 6.76204 5.47689C7.11491 5.12402 7.5935 4.92578 8.09253 4.92578C8.59156 4.92578 9.07015 5.12402 9.42301 5.47689C9.77588 5.82975 9.97412 6.30834 9.97412 6.80737Z" fill="#CD5FE1"/>
<path d="M15.7665 6.79833C15.7686 7.29736 15.5725 7.77679 15.2211 8.13118C14.8698 8.48556 14.392 8.68586 13.893 8.688C13.394 8.69015 12.9145 8.49397 12.5601 8.14262C12.2058 7.79127 12.0055 7.31353 12.0033 6.8145C12.0023 6.56741 12.0499 6.32252 12.1434 6.09383C12.237 5.86514 12.3747 5.65712 12.5487 5.48165C12.9001 5.12726 13.3778 4.92697 13.8768 4.92482C14.3758 4.92268 14.8553 5.11886 15.2097 5.47021C15.5641 5.82156 15.7643 6.2993 15.7665 6.79833Z" fill="#B46EE5"/>
<path d="M19.7144 8.67828C19.2169 8.68457 18.7369 8.49423 18.3789 8.14864C18.0208 7.80305 17.8136 7.33013 17.8023 6.83264C17.7989 6.58554 17.8442 6.34019 17.9356 6.11059C18.027 5.881 18.1627 5.67166 18.335 5.49452C18.5073 5.31738 18.7128 5.17591 18.9398 5.07819C19.1667 4.98047 19.4107 4.92841 19.6578 4.92499C19.9049 4.92156 20.1503 4.96684 20.3799 5.05824C20.6095 5.14964 20.8188 5.28537 20.996 5.45767C21.1731 5.62997 21.3146 5.83547 21.4123 6.06245C21.51 6.28942 21.5621 6.53342 21.5655 6.78052C21.5688 7.02674 21.5235 7.27119 21.4323 7.4999C21.341 7.7286 21.2055 7.93705 21.0336 8.11332C20.8616 8.2896 20.6566 8.43023 20.4303 8.52718C20.2039 8.62412 19.9607 8.67547 19.7144 8.67828Z" fill="#A17AE8"/>
<path d="M39.7201 46.744C39.8046 44.7097 40.8936 42.8442 43.1113 41.7696C45.3289 40.6949 47.4729 40.9878 49.4461 42.4561C50.0697 42.9197 50.2027 43.5343 49.8361 44.0178C49.4695 44.5012 48.8603 44.5371 48.2349 44.0789L48.0749 43.9567C47.431 43.476 46.6555 43.2038 45.8525 43.1765C45.0494 43.1492 44.2572 43.3681 43.5821 43.8039C43.0485 44.1422 42.6031 44.6026 42.2827 45.1471C41.9623 45.6916 41.7761 46.3045 41.7395 46.9352C41.7029 47.566 41.817 48.1963 42.0722 48.7742C42.3275 49.3521 42.7167 49.861 43.2075 50.2587C43.6984 50.6564 44.2769 50.9316 44.8952 51.0615C45.5135 51.1913 46.1538 51.1722 46.7632 51.0056C47.3726 50.839 47.9336 50.5297 48.3998 50.1034C48.866 49.677 49.2241 49.1458 49.4443 48.5537C49.5144 48.374 49.5522 48.1655 49.6241 47.9732C49.8325 47.3407 50.3429 47.0459 50.9198 47.2149C51.4463 47.3676 51.7321 47.896 51.5793 48.5088C51.1049 50.3904 50.005 51.776 48.2528 52.6026C44.2776 54.4716 39.7273 51.5639 39.7201 46.744Z" fill="url(#paint2_linear_4163_2705)"/>
<path d="M59.9829 20.505C62.0281 20.505 63.5053 22.0577 63.5089 24.1945C63.5089 26.1803 61.9328 27.6917 59.8607 27.6881C57.9701 27.6881 56.3437 26.0042 56.3581 24.0687C56.3621 23.5967 56.4591 23.1301 56.6434 22.6956C56.8277 22.261 57.0958 21.867 57.4324 21.5361C57.769 21.2052 58.1675 20.9438 58.6051 20.7669C59.0427 20.59 59.5109 20.501 59.9829 20.505ZM59.9685 25.661C60.2761 25.6574 60.5759 25.5632 60.8302 25.3901C61.0845 25.217 61.2821 24.9728 61.3982 24.6879C61.5144 24.4031 61.5439 24.0903 61.4832 23.7888C61.4224 23.4872 61.274 23.2103 61.0566 22.9926C60.8392 22.775 60.5625 22.6263 60.261 22.5652C59.9595 22.5041 59.6467 22.5333 59.3617 22.6491C59.0768 22.765 58.8323 22.9623 58.6589 23.2164C58.4855 23.4705 58.391 23.7701 58.3871 24.0777C58.3866 24.2856 58.4272 24.4915 58.5065 24.6837C58.5857 24.8759 58.7022 25.0506 58.8491 25.1977C58.996 25.3447 59.1706 25.4614 59.3627 25.5409C59.5547 25.6204 59.7607 25.6612 59.9685 25.661Z" fill="url(#paint3_linear_4163_2705)"/>
<path d="M14.6321 50.9844H8.39783V53.0079H14.6321V50.9844Z" fill="url(#paint4_linear_4163_2705)"/>
<defs>
<linearGradient id="paint0_linear_4163_2705" x1="45.6074" y1="1.01538" x2="51.8416" y2="1.01538" gradientUnits="userSpaceOnUse">
<stop stop-color="#52AAF3"/>
<stop offset="1" stop-color="#3BB7F6"/>
</linearGradient>
<linearGradient id="paint1_linear_4163_2705" x1="-5.22245e-08" y1="32.0065" x2="69.0161" y2="32.0065" gradientUnits="userSpaceOnUse">
<stop stop-color="#F04ADC"/>
<stop offset="1" stop-color="#00DBFF"/>
</linearGradient>
<linearGradient id="paint2_linear_4163_2705" x1="39.7201" y1="47.1494" x2="51.6203" y2="47.1494" gradientUnits="userSpaceOnUse">
<stop stop-color="#6B9AEF"/>
<stop offset="1" stop-color="#39B9F7"/>
</linearGradient>
<linearGradient id="paint3_linear_4163_2705" x1="56.358" y1="24.0965" x2="63.5089" y2="24.0965" gradientUnits="userSpaceOnUse">
<stop stop-color="#33BCF8"/>
<stop offset="1" stop-color="#0FD2FD"/>
</linearGradient>
<linearGradient id="paint4_linear_4163_2705" x1="8.39783" y1="51.9962" x2="14.6321" y2="51.9962" gradientUnits="userSpaceOnUse">
<stop stop-color="#D45BE0"/>
<stop offset="1" stop-color="#BD69E4"/>
</linearGradient>
</defs>
</svg>
