<svg width="48" height="48" viewBox="0 0 48 48" fill="none" xmlns="http://www.w3.org/2000/svg">
<path d="M0 32.5486V6.51542C0.0187344 6.4405 0.0421527 6.36558 0.0550326 6.28949C0.668586 2.60926 3.95882 -0.0174709 7.6659 8.75005e-05C18.5881 0.0504215 29.5126 0.0129634 40.4348 0.0199868C44.6735 0.0199868 47.9871 3.32681 47.9895 7.55604C47.9957 20.4579 47.9992 33.359 48 46.2594C48 47.0963 47.6792 47.6641 46.9251 48H45.9884C45.6339 47.8344 45.3156 47.6005 45.0517 47.3117C42.4757 44.7248 39.8868 42.1472 37.3179 39.5509C37.1635 39.3805 36.9736 39.2461 36.7615 39.1571C36.5495 39.0681 36.3205 39.0267 36.0907 39.0359C26.5237 39.0499 16.9555 39.0499 7.38606 39.0359C5.20701 39.0359 3.38976 38.1685 1.91208 36.5847C0.853589 35.4481 0.263453 34.0739 0 32.5486ZM44.8596 42.599C44.9767 42.4562 44.924 42.2935 44.924 42.146C44.924 30.7526 44.924 19.3592 44.924 7.96574C44.934 7.46646 44.8773 6.9681 44.7554 6.48381C44.1512 4.30423 42.4792 3.08919 40.0718 3.08919C29.3502 3.08763 18.6275 3.08685 7.9036 3.08685C7.40438 3.07606 6.90603 3.13356 6.4224 3.25775C4.29136 3.85474 3.04552 5.49352 3.04084 7.80537C3.02444 15.6239 3.02444 23.4425 3.04084 31.261C3.04084 32.8073 3.59233 34.1254 4.86861 35.0794C5.80534 35.7817 6.87554 35.9737 8.00429 35.9737C17.7142 35.9737 27.4241 35.9706 37.134 35.9643C37.4596 35.954 37.7835 36.0137 38.084 36.1396C38.3844 36.2654 38.6542 36.4543 38.8751 36.6936C40.7146 38.5665 42.5729 40.4124 44.4287 42.2654C44.554 42.393 44.65 42.5709 44.8596 42.599Z" fill="url(#paint0_linear)"/>
<path d="M24.1112 23.1227C23.4894 23.1227 23.1512 22.7752 23.0963 22.0804L22.3009 11.9867C22.2643 11.4198 22.4106 10.9444 22.7397 10.5604C23.0872 10.1764 23.5352 9.98438 24.0837 9.98438C24.6323 9.98438 25.0803 10.1764 25.4277 10.5604C25.7752 10.9444 25.9214 11.4198 25.8666 11.9867L25.0986 22.0804C25.0437 22.7752 24.7146 23.1227 24.1112 23.1227ZM23.9192 29.1844C23.3889 29.1844 22.9774 29.0472 22.6849 28.7729C22.4106 28.4804 22.2734 28.0689 22.2734 27.5387V27.0724C22.2734 26.5421 22.4106 26.1398 22.6849 25.8655C22.9774 25.5729 23.3889 25.4267 23.9192 25.4267H24.2757C24.806 25.4267 25.2083 25.5729 25.4826 25.8655C25.7752 26.1398 25.9214 26.5421 25.9214 27.0724V27.5387C25.9214 28.0689 25.7752 28.4804 25.4826 28.7729C25.2083 29.0472 24.806 29.1844 24.2757 29.1844H23.9192Z" fill="url(#paint1_linear)"/>
<defs>
<linearGradient id="paint0_linear" x1="-3.63216e-08" y1="24" x2="48" y2="24" gradientUnits="userSpaceOnUse">
<stop stop-color="#F04ADC"/>
<stop offset="1" stop-color="#00DBFF"/>
</linearGradient>
<linearGradient id="paint1_linear" x1="22.5015" y1="18.3753" x2="25.5014" y2="18.3753" gradientUnits="userSpaceOnUse">
<stop stop-color="#878AEB"/>
<stop offset="1" stop-color="#6D99EF"/>
</linearGradient>
</defs>
</svg>
