<svg width="16" height="16" viewBox="0 0 16 16" fill="none" xmlns="http://www.w3.org/2000/svg">
<path d="M1.97942 3.84124L1.72965 3.40623L3.22827 1.85266L3.45597 1.66617L4.02919 2.28768L4.58867 2.47417L6.61888 1.66617L6.7854 0.236656H9.10617L9.27268 1.60373L11.531 2.55701L12.4631 1.72819L14.3072 3.36501L13.4688 4.3387L14.3097 6.5554L15.7167 6.78768V9.20753L14.4737 9.3524L13.4688 11.4863L14.2889 12.5844L12.4864 14.3453L11.5318 13.5073L9.74974 14.242L9.31472 14.4918L9.27309 15.6932H6.82869L6.66217 14.5126L5.70889 14.0302L4.42549 13.5073L3.55505 14.3041L2.70583 13.8462L1.6285 12.5203L2.43733 11.6299L2.02105 10.3244L1.50319 9.32992L0.343017 9.24666L0.198151 6.7856H1.64848L1.83497 6.32561L2.18756 5.08467L2.60384 4.52519L2.33451 4.04855L1.97942 3.84124ZM8.04923 3.05447C7.0777 3.05447 6.12799 3.34256 5.3202 3.88231C4.5124 4.42206 3.8828 5.18923 3.51101 6.0868C3.13923 6.98438 3.04195 7.97204 3.23149 8.9249C3.42102 9.87776 3.88886 10.753 4.57583 11.44C5.2628 12.127 6.13806 12.5948 7.09092 12.7843C8.04378 12.9739 9.03144 12.8766 9.92902 12.5048C10.8266 12.133 11.5938 11.5034 12.1335 10.6956C12.6733 9.88783 12.9614 8.93812 12.9614 7.96659C12.9614 6.66382 12.4438 5.4144 11.5226 4.4932C10.6014 3.57199 9.352 3.05447 8.04923 3.05447Z" fill="#F9F9F9"/>
<path d="M0.00208154 6.81724C0.113645 6.56539 0.303053 6.44841 0.584876 6.46049C0.828817 6.47131 1.07401 6.45799 1.31836 6.46507C1.43034 6.46798 1.48488 6.43301 1.51443 6.31937C1.66365 5.71747 1.90219 5.14133 2.22211 4.61011C2.27789 4.51603 2.26998 4.45526 2.19256 4.38116C2.00065 4.19758 1.81416 4.00859 1.62891 3.81876C1.39246 3.57732 1.39205 3.28509 1.62891 3.04406C2.09431 2.57505 2.56166 2.1077 3.03095 1.64202C3.27822 1.39642 3.56795 1.39767 3.81689 1.64202C4.00671 1.82769 4.19529 2.0146 4.37928 2.20567C4.44964 2.27893 4.50833 2.28435 4.59617 2.23273C5.12659 1.913 5.70188 1.67447 6.30292 1.52505C6.42448 1.49549 6.4582 1.43513 6.45487 1.31691C6.44779 1.05174 6.4507 0.786149 6.45487 0.520561C6.4582 0.209598 6.66301 0.00312211 6.97563 0.00187327C7.65723 -0.000624423 8.33882 -0.000624423 9.02041 0.00187327C9.32097 0.00187327 9.53036 0.213345 9.53452 0.512651C9.53827 0.783234 9.5416 1.05382 9.53452 1.3244C9.53036 1.44929 9.57989 1.49757 9.69396 1.52546C10.2899 1.67475 10.8605 1.91126 11.3874 2.22732C11.4798 2.28227 11.5414 2.27977 11.6168 2.20067C11.7999 2.00835 11.9889 1.82227 12.1787 1.63661C12.4206 1.39975 12.7128 1.39808 12.9534 1.63661C13.4269 2.10535 13.8978 2.5763 14.3663 3.04947C14.5986 3.28426 14.5973 3.5769 14.3688 3.81335C14.1806 4.00734 13.9892 4.19924 13.7943 4.38699C13.7219 4.45692 13.7132 4.5152 13.766 4.60345C14.0882 5.13923 14.3289 5.7199 14.4804 6.32644C14.5066 6.4326 14.5582 6.46756 14.6656 6.46507C14.9362 6.4584 15.2068 6.4609 15.4774 6.46507C15.7887 6.46798 15.9965 6.67321 15.9977 6.985C16.0002 7.6616 16.0002 8.33806 15.9977 9.01438C15.9977 9.33658 15.7921 9.54181 15.4724 9.54514C15.2068 9.54763 14.9412 9.5518 14.676 9.54305C14.5511 9.53889 14.5024 9.58718 14.4741 9.70207C14.3239 10.2982 14.087 10.869 13.771 11.3963C13.7165 11.4892 13.719 11.5504 13.7981 11.6257C13.99 11.8089 14.1765 11.9979 14.3617 12.1877C14.5986 12.4308 14.6003 12.7222 14.3617 12.9628C14.0774 13.2513 13.8326 13.5756 13.5337 13.8516C13.3256 14.0456 13.0991 14.2208 12.8939 14.421C12.7003 14.61 12.4044 14.5876 12.2021 14.3944C11.9997 14.2012 11.8078 14.0085 11.6168 13.8116C11.5427 13.7338 11.4823 13.7263 11.3878 13.7821C10.856 14.1008 10.28 14.3393 9.67855 14.4897C9.56491 14.5176 9.52994 14.573 9.53285 14.6858C9.53993 14.9302 9.52619 15.1753 9.53743 15.4193C9.55034 15.6999 9.4317 15.8876 9.18068 16H6.80829C6.55852 15.8859 6.4378 15.7003 6.45154 15.4193C6.46319 15.1808 6.44737 14.941 6.45653 14.702C6.46111 14.5771 6.4224 14.5164 6.29626 14.4856C5.69955 14.3358 5.12851 14.0978 4.602 13.7796C4.50958 13.7246 4.44797 13.7275 4.37262 13.8066C4.18988 13.9981 4.00088 14.1846 3.81106 14.3698C3.56837 14.6067 3.27614 14.6096 3.03636 14.3723C2.56485 13.9039 2.09473 13.4338 1.626 12.962C1.3883 12.7222 1.39163 12.4296 1.62891 12.1877C1.81457 11.9983 2.00023 11.8093 2.19214 11.6261C2.27123 11.5508 2.27332 11.4896 2.21878 11.3968C1.90204 10.8704 1.66536 10.2998 1.51652 9.70374C1.48613 9.57885 1.42535 9.53723 1.30005 9.54347C1.0611 9.55263 0.821324 9.53681 0.582795 9.54846C0.302221 9.56179 0.115726 9.44065 0 9.19171L0.00208154 6.81724ZM7.99136 15.5175H8.83392C9.04456 15.5175 9.04497 15.5175 9.04539 15.3136C9.04539 15.0742 9.04539 14.8348 9.04539 14.5955C9.04539 14.2812 9.17027 14.1034 9.47083 14.0272C10.0813 13.8705 10.6664 13.628 11.2088 13.3071C11.4806 13.1476 11.6871 13.1822 11.9136 13.4016C12.0996 13.5835 12.2849 13.7662 12.4643 13.9544C12.5367 14.0306 12.5838 14.0376 12.6633 13.9586C13.0862 13.5281 13.5131 13.1016 13.9438 12.6789C14.0316 12.5927 14.02 12.5453 13.9388 12.4678C13.7427 12.2818 13.5516 12.0899 13.3647 11.8942C13.1778 11.6986 13.1428 11.4867 13.2815 11.2523C13.6143 10.6871 13.8665 10.0782 14.0308 9.44315C14.0974 9.18464 14.2835 9.05767 14.5482 9.05559C14.813 9.05351 15.079 9.05101 15.3441 9.05559C15.4628 9.05809 15.5107 9.02187 15.5107 8.89615C15.5059 8.30309 15.5059 7.71003 15.5107 7.11696C15.5107 6.98334 15.4603 6.94629 15.3354 6.95045C15.0856 6.95711 14.8359 6.95295 14.5861 6.95045C14.2718 6.95045 14.0936 6.82557 14.0175 6.52501C13.8607 5.91472 13.6182 5.32972 13.2973 4.78745C13.1379 4.51437 13.1703 4.30831 13.3918 4.08227C13.5737 3.89661 13.7564 3.71094 13.9446 3.53153C14.0204 3.45909 14.0299 3.41205 13.9488 3.33254C13.5178 2.91099 13.0914 2.48527 12.6695 2.05539C12.5834 1.96756 12.5359 1.97963 12.4589 2.06039C12.2718 2.25576 12.0812 2.4467 11.8869 2.63319C11.69 2.82093 11.4777 2.85507 11.2446 2.71645C10.6797 2.38295 10.0707 2.1307 9.43544 1.96714C9.17735 1.90095 9.04997 1.71446 9.04788 1.4497C9.0458 1.18495 9.04289 0.918942 9.04788 0.653771C9.0508 0.535131 9.01417 0.487258 8.88845 0.487258C8.29566 0.491698 7.7026 0.491698 7.10926 0.487258C6.97522 0.487258 6.93942 0.537628 6.94275 0.662512C6.94941 0.912282 6.94525 1.16205 6.94275 1.41182C6.94275 1.72611 6.81786 1.90303 6.51689 1.98004C5.90681 2.13746 5.3219 2.37989 4.77933 2.70021C4.50583 2.85965 4.30061 2.8251 4.07457 2.6053C3.88891 2.42338 3.70283 2.24105 3.52383 2.05248C3.45056 1.97547 3.40352 1.96922 3.32443 2.04915C2.90148 2.47958 2.4748 2.90613 2.04436 3.3288C1.95611 3.41497 1.96901 3.46242 2.04977 3.53944C2.24584 3.72551 2.43733 3.91742 2.62382 4.11307C2.81032 4.30872 2.84487 4.52186 2.70708 4.75498C2.37382 5.32012 2.12159 5.92926 1.95777 6.56456C1.89117 6.82265 1.70509 6.94962 1.43992 6.9517C1.17475 6.95378 0.90916 6.95628 0.643988 6.9517C0.524931 6.9492 0.477475 6.98625 0.477475 7.11155C0.482193 7.70489 0.482193 8.29795 0.477475 8.89074C0.477475 9.02478 0.528678 9.06058 0.653146 9.05725C0.902915 9.05059 1.15268 9.05476 1.40245 9.05725C1.71716 9.05725 1.89492 9.18214 1.97109 9.48311C2.12762 10.0934 2.36995 10.6784 2.69085 11.2207C2.84987 11.4929 2.81573 11.6998 2.59635 11.9258C2.41443 12.1119 2.2321 12.2972 2.04353 12.4766C1.96693 12.5494 1.96027 12.5965 2.03978 12.6756C2.47133 13.0969 2.89815 13.5227 3.32026 13.9531C3.40643 14.0414 3.45431 14.0285 3.5309 13.9477C3.7174 13.7521 3.9093 13.561 4.10454 13.3741C4.29978 13.1872 4.5125 13.1522 4.74645 13.2908C5.31191 13.6234 5.92096 13.8756 6.55602 14.0401C6.81453 14.1068 6.94108 14.2924 6.94316 14.558C6.94566 14.8128 6.95107 15.0679 6.94108 15.3227C6.93567 15.4688 6.97813 15.5271 7.13299 15.5213C7.41856 15.5096 7.70496 15.5175 7.99136 15.5175Z" fill="#F9F9F9"/>
<path d="M2.96268 7.99615C3.02387 5.11631 5.24682 2.98578 7.9822 2.97704C9.31534 2.97483 10.5948 3.5023 11.539 4.44341C12.4832 5.38452 13.0149 6.66218 13.0171 7.99532C13.0193 9.32846 12.4919 10.6079 11.5508 11.5521C10.6097 12.4963 9.33199 13.028 7.99886 13.0302C5.20727 13.0323 2.98183 10.7923 2.96268 7.99615ZM7.99303 3.48282C5.6223 3.47159 3.49718 5.34027 3.47762 7.97867C3.473 8.87361 3.73421 9.74977 4.22813 10.4961C4.72206 11.2424 5.42645 11.8253 6.25202 12.1708C7.07759 12.5163 7.98716 12.6089 8.86542 12.4369C9.74368 12.2648 10.5511 11.8359 11.1853 11.2044C11.8195 10.573 12.2519 9.76744 12.4278 8.88993C12.6036 8.01243 12.515 7.10246 12.173 6.2754C11.8311 5.44834 11.2513 4.74142 10.5072 4.24426C9.763 3.74711 8.88798 3.48209 7.99303 3.48282Z" fill="#F9F9F9"/>
<path d="M4.97873 8.06234C5.00659 7.95887 5.06454 7.86601 5.14524 7.79551C5.20019 7.74555 5.25098 7.69019 5.30385 7.63815C5.34513 7.59397 5.39505 7.55875 5.45051 7.53467C5.50597 7.51059 5.56579 7.49816 5.62626 7.49816C5.68672 7.49816 5.74654 7.51059 5.802 7.53467C5.85746 7.55875 5.90738 7.59397 5.94867 7.63815C6.18511 7.87169 6.41865 8.1073 6.65343 8.34208L6.91444 8.60309C6.96689 8.65513 6.96689 8.65555 7.01768 8.60309L8.18202 7.44167C8.69654 6.92714 9.21093 6.41276 9.72517 5.89851C9.85839 5.76488 10.0128 5.70952 10.1985 5.76488C10.2666 5.78565 10.3284 5.82314 10.3783 5.87395C10.4462 5.94097 10.5136 6.00799 10.5802 6.07585C10.6239 6.11698 10.6587 6.16662 10.6825 6.22171C10.7063 6.2768 10.7186 6.33617 10.7186 6.39617C10.7186 6.45618 10.7063 6.51555 10.6825 6.57064C10.6587 6.62573 10.6239 6.67537 10.5802 6.7165C10.2913 7.0079 10.0003 7.2968 9.71019 7.58695L7.19751 10.0996C7.08387 10.2133 6.94774 10.2362 6.82286 10.1654C6.79562 10.1491 6.77082 10.1291 6.74918 10.1059C6.20551 9.56248 5.66199 9.01924 5.1186 8.47613C5.05421 8.41092 5.00775 8.33019 4.98372 8.24176L4.97873 8.06234Z" fill="#F9F9F9"/>
</svg>
