<svg width="22" height="23" viewBox="0 0 22 23" fill="none" xmlns="http://www.w3.org/2000/svg">
<path d="M21.6872 18.2575C21.6912 19.0759 21.4482 19.8765 20.9899 20.5546C20.5316 21.2326 19.8794 21.7566 19.1185 22.058C17.4728 22.7106 15.9256 22.4736 14.6804 21.2101C13.1165 19.6228 11.843 17.7835 10.4794 16.0226C7.26033 11.8567 4.04739 7.68401 0.840565 3.50468C0.586868 3.17087 0.309804 2.84707 0.311473 2.39976C0.302036 2.14756 0.364898 1.89793 0.492649 1.68028C0.620399 1.46263 0.807714 1.28604 1.03251 1.17133C1.25981 1.03758 1.52249 0.976312 1.7855 0.995696C2.04852 1.01508 2.29938 1.1142 2.50462 1.27982C3.45821 1.98416 4.40401 2.69908 5.34203 3.42456C10.2157 7.1933 15.1244 10.9136 19.9346 14.7658C21.0613 15.6788 21.6938 16.7971 21.6872 18.2575ZM9.51969 10.0941L9.41955 10.1943C10.6914 11.8366 11.9637 13.4796 13.2367 15.123C14.0929 16.2229 14.9592 17.3162 15.8254 18.4077C16.0185 18.6533 16.2258 18.8874 16.4463 19.1087C17.0956 19.7613 17.9718 19.7897 18.5476 19.1872C19.1235 18.5847 19.0634 17.685 18.3908 17.0792C17.7715 16.5267 17.1039 16.0126 16.4546 15.5119C14.1447 13.7004 11.833 11.8945 9.51969 10.0941Z" fill="url(#paint0_linear_43_2643)"/>
<defs>
<linearGradient id="paint0_linear_43_2643" x1="-4.64403e-08" y1="32" x2="61.3721" y2="32" gradientUnits="userSpaceOnUse">
<stop stop-color="#F04ADC"/>
<stop offset="1" stop-color="#00DBFF"/>
</linearGradient>
</defs>
</svg>
