<svg width="62" height="64" viewBox="0 0 62 64" fill="none" xmlns="http://www.w3.org/2000/svg">
<path d="M28.1675 64C26.9991 63.8147 25.8308 63.6662 24.6624 63.4359C18.0596 62.1006 12.4699 58.9294 7.95514 53.9472C3.4737 49.0068 0.808212 43.1968 0.163954 36.5206C-0.68393 27.748 1.7568 19.9963 7.48613 13.2655C7.84832 12.8382 8.22552 12.4193 8.61942 12.0204C9.35214 11.2777 10.0682 11.2209 10.6957 11.8284C11.3233 12.436 11.2949 13.1754 10.5806 13.9231C9.55444 14.9872 8.61196 16.1289 7.76152 17.338C5.10556 21.0981 3.4408 25.4672 2.92124 30.0413C2.25362 35.7261 3.21834 41.1255 5.85712 46.1911C8.57936 51.4153 12.5834 55.3943 17.8109 58.1416C22.4843 60.6018 27.4915 61.5815 32.7223 61.2043C38.761 60.772 44.1204 58.5639 48.732 54.6215C53.599 50.4622 56.7852 45.2564 58.0103 38.9691C59.7278 30.1447 57.7583 22.1566 51.985 15.2484C47.5369 9.92905 41.7587 6.83128 34.8988 5.75473C34.4598 5.6863 34.2729 5.83818 34.0643 6.17366C33.6055 6.91479 32.9161 7.48486 32.102 7.79632C31.2879 8.10779 30.3941 8.14344 29.5578 7.89781C27.7485 7.35036 26.6319 5.81982 26.6553 3.92043C26.6737 2.13787 27.8687 0.635717 29.6479 0.134998C30.5514 -0.106904 31.5113 -0.0218442 32.3581 0.37516C33.2049 0.772164 33.8843 1.45558 34.2762 2.30478C34.4999 2.78881 34.792 2.9724 35.2994 3.05085C41.1494 3.93378 46.3486 6.28215 50.8217 10.1577C55.9373 14.6008 59.1953 20.1721 60.6691 26.7899C61.1466 28.9435 61.3823 31.1435 61.3718 33.3493C61.3464 40.6245 58.7477 47.656 54.0358 53.1991C49.3238 58.7422 42.8026 62.4394 35.6265 63.6361C34.8103 63.7763 33.9858 63.8798 33.1663 64H28.1675ZM30.646 5.27905C31.3954 5.27905 31.9045 4.79335 31.9145 4.05062C31.9245 3.30789 31.4288 2.79048 30.6861 2.78213C30.5199 2.76998 30.353 2.79312 30.1964 2.85003C30.0397 2.90694 29.8969 2.99633 29.7773 3.11234C29.6576 3.22835 29.5639 3.36835 29.5022 3.52316C29.4405 3.67796 29.4122 3.84406 29.4193 4.01056C29.4109 4.75997 29.9033 5.2707 30.646 5.27905Z" fill="url(#paint0_linear_43_2643)"/>
<defs>
<linearGradient id="paint0_linear_43_2643" x1="-4.64403e-08" y1="32" x2="61.3721" y2="32" gradientUnits="userSpaceOnUse">
<stop stop-color="#F04ADC"/>
<stop offset="1" stop-color="#00DBFF"/>
</linearGradient>
</defs>
</svg>
