<svg width="41" height="48" viewBox="0 0 41 48" fill="none" xmlns="http://www.w3.org/2000/svg">
<path d="M18.8604 48C18.0456 47.875 17.2246 47.7876 16.4161 47.6363C11.9336 46.7978 8.15965 44.6697 5.128 41.2794C1.37281 37.0793 -0.301717 32.1195 0.0444356 26.5086C0.294365 22.4597 1.70272 18.8182 4.20576 15.6191C4.45569 15.2955 4.45569 15.1255 4.15578 14.8693C3.82326 14.5851 3.51248 14.2764 3.22604 13.9458C3.0236 13.7147 2.89738 13.7546 2.71493 13.9596C2.45501 14.2495 2.17384 14.5232 1.88642 14.7868C1.45904 15.1817 0.920439 15.1805 0.544295 14.8018C0.168151 14.4232 0.180648 13.8634 0.580536 13.4597C1.73438 12.2934 2.8953 11.1358 4.0633 9.98696C4.48069 9.57832 5.02928 9.58832 5.40543 9.96446C5.78157 10.3406 5.75908 10.8917 5.37669 11.3103C5.19674 11.5065 5.00179 11.6852 4.81559 11.8764C4.30324 12.3838 4.29949 12.3875 4.83059 12.9086C5.12925 13.2023 5.41417 13.6697 5.75283 13.7172C6.07024 13.7621 6.34641 13.2385 6.64633 12.9674C9.32382 10.548 12.6052 8.89696 16.1437 8.18871C16.4773 8.11998 16.5773 8.08874 16.3299 7.75883C15.0989 6.12179 14.9927 4.05737 16.0212 2.3566C17.0209 0.704568 18.9816 -0.241415 20.8011 0.0535022C22.903 0.394656 24.4251 1.76802 24.8874 3.78495C25.2211 5.23954 24.9074 6.57291 24.0127 7.76258C23.8252 8.01251 23.7628 8.10373 24.1551 8.18246C27.9952 8.93273 31.5275 10.8024 34.3073 13.5559C34.5572 13.7946 34.6822 13.7746 34.8921 13.5397C35.1608 13.235 35.4489 12.9478 35.7544 12.6799C35.9906 12.4725 36.0356 12.3238 35.7669 12.0989C35.4848 11.8522 35.2181 11.5884 34.9683 11.3091C34.5822 10.8942 34.5747 10.3294 34.9371 9.96446C35.2995 9.59956 35.8606 9.57582 36.278 9.98445C37.4493 11.1333 38.6111 12.2909 39.7632 13.4572C39.8556 13.5419 39.9301 13.6443 39.9821 13.7584C40.0342 13.8724 40.0628 13.9957 40.0663 14.121C40.0698 14.2463 40.0481 14.371 40.0025 14.4877C39.9569 14.6045 39.8883 14.7109 39.8007 14.8006C39.4258 15.1755 38.8872 15.1817 38.4586 14.7868C38.1793 14.5367 37.9144 14.2709 37.6651 13.9908C37.4589 13.7534 37.3102 13.7172 37.0853 13.9758C36.7852 14.315 36.4643 14.6351 36.1243 14.9343C35.8881 15.143 35.8831 15.2867 36.0843 15.5391C37.3679 17.154 38.3874 18.9622 39.1047 20.8964C42.1601 29.0491 39.5158 38.364 32.6278 43.7087C29.4349 46.1855 25.8322 47.6039 21.7983 47.92C21.6922 47.936 21.5877 47.961 21.4859 47.995L18.8604 48ZM1.87267 27.8944C1.87267 37.9466 10.0716 46.1255 20.165 46.1318C30.2584 46.138 38.4636 37.9678 38.4711 27.9082C38.4799 17.811 30.2822 9.68079 20.085 9.66829C10.0891 9.65705 1.87892 17.8697 1.87267 27.8944ZM20.1838 7.79257C20.7655 7.78543 21.3321 7.60654 21.8125 7.27839C22.2928 6.95023 22.6655 6.48745 22.8837 5.94816C23.1019 5.40888 23.1559 4.81714 23.0388 4.24728C22.9218 3.67743 22.639 3.15486 22.2259 2.74523C21.8128 2.3356 21.2879 2.05718 20.717 1.94493C20.1462 1.83267 19.555 1.89161 19.0175 2.11432C18.4801 2.33703 18.0204 2.71359 17.6963 3.19669C17.3722 3.6798 17.1981 4.24791 17.1959 4.82966C17.1975 5.22039 17.2761 5.60698 17.4271 5.96735C17.5782 6.32772 17.7987 6.65481 18.0762 6.92994C18.3536 7.20507 18.6825 7.42286 19.0442 7.57087C19.4058 7.71888 19.793 7.79422 20.1838 7.79257Z" fill="url(#paint0_linear_4163_4218)"/>
<path d="M4.12329 27.8679C4.14829 19.0329 11.3613 11.8861 20.2225 11.9161C29.0838 11.9461 36.2505 19.1266 36.218 27.9216C36.1905 36.7604 28.97 43.9096 20.1175 43.8759C11.265 43.8421 4.0983 36.6629 4.12329 27.8679ZM34.3473 27.9191C34.3685 20.1513 28.0328 13.8156 20.2263 13.7906C12.3935 13.7656 6.02526 20.0688 6.00401 27.8704C5.98152 35.6332 12.3185 41.9714 20.1313 42.0014C27.9441 42.0314 34.326 35.7169 34.3473 27.9191Z" fill="url(#paint1_linear_4163_4218)"/>
<rect x="13.5411" y="18.7441" width="11.8723" height="1.62454" rx="0.812271" transform="rotate(52.8343 13.5411 18.7441)" fill="url(#paint2_linear_4163_4218)"/>
<rect x="26.8674" y="28.8662" width="7.99775" height="1.62454" rx="0.812271" transform="rotate(180 26.8674 28.8662)" fill="url(#paint3_linear_4163_4218)"/>
<defs>
<linearGradient id="paint0_linear_4163_4218" x1="-3.05425e-08" y1="24" x2="40.3627" y2="24" gradientUnits="userSpaceOnUse">
<stop stop-color="#F04ADC"/>
<stop offset="1" stop-color="#00DBFF"/>
</linearGradient>
<linearGradient id="paint1_linear_4163_4218" x1="4.12323" y1="27.896" x2="36.2181" y2="27.896" gradientUnits="userSpaceOnUse">
<stop stop-color="#F04ADC"/>
<stop offset="1" stop-color="#00DBFF"/>
</linearGradient>
<linearGradient id="paint2_linear_4163_4218" x1="13.5411" y1="19.5564" x2="25.4134" y2="19.5564" gradientUnits="userSpaceOnUse">
<stop stop-color="#BE68E3"/>
<stop offset="1" stop-color="#3EB6F6"/>
</linearGradient>
<linearGradient id="paint3_linear_4163_4218" x1="26.8674" y1="29.6785" x2="34.8651" y2="29.6785" gradientUnits="userSpaceOnUse">
<stop stop-color="#7C90ED"/>
<stop offset="1" stop-color="#3AB8F7"/>
</linearGradient>
</defs>
</svg>
